<svg id="Layer_1" data-name="Layer 1" xmlns="http://www.w3.org/2000/svg" viewBox="0 0 72 63.27">
  <defs>
    <style>
      .cls-1 {
        fill: #4b4c51;
      }

      .cls-2 {
        fill: #98999d;
      }

      .cls-3 {
        fill: #707076;
      }

      .cls-4 {
        fill: #303135;
      }
    </style>
  </defs>
  <title>asteroid</title>
  <g>
    <path class="cls-1" d="M34.68,67.64c6.28-2.37,12.65-2.11,19-1.45a8.22,8.22,0,0,0,6.17-1.4c2.94-2.16,5.59-4.53,7.19-7.89-1.29.21-2.1,1.31-3.27,1.77-1.54.6-2.55.08-2.77-1.56,0-.21,0-.42,0-.63,0-.53-.06-1.14-.59-1.36s-.85.42-1.15.8c-1.44,1.86-2.74,3.84-4.78,5.14-2.33,1.49-4,1.17-5.39-1.2-1.62-2.71-2-5.8-2.5-8.83-.12-.69-.11-1.5-.78-1.78s-1.3.46-1.82.94-.73.75-1.11,1.11a2.15,2.15,0,0,1-2.4.74A2.57,2.57,0,0,1,39,49.63a25,25,0,0,1,.76-8.08c.25-.95.38-2-.44-2.63s-1.85-.1-2.59.41c-2.11,1.45-4.13,3-6.22,4.5a33.14,33.14,0,0,1-8.91,4.86c-2.23.73-3.21-.19-2.65-2.52a21.64,21.64,0,0,1,2.74-5.79c.42-.72.9-1.41,1.29-2.15a2.15,2.15,0,0,0,0-2.38,2.08,2.08,0,0,0-2.31-.56,5.22,5.22,0,0,1-3.08-.06,1.84,1.84,0,0,1-1.35-2.29c.32-2.2,1.71-3.78,2.94-5.45,1.45-2,1.33-2.62-.84-3.72-.37-.18-.74-.39-1.13-.55-4.73-1.95-5.79-5.65-4.46-10.27.38-1.29,1.38-2.43,1-3.91C11.15,10.69,8.62,12.41,8,15.81a8.57,8.57,0,0,0,.65,4.73c.47,1.1.13,1.62-.73,2.25a28.28,28.28,0,0,0-5.83,5.63C1.18,29.63.83,31.1,0,32.35v3.77a20.9,20.9,0,0,0,6,8.24,1.78,1.78,0,0,1,.53,1.27c1.24,11.34,8,17.82,18.49,21l2.79.87c-.76.07,3.1,0,2.78,0Z" transform="translate(0 -4.36)"/>
    <path class="cls-2" d="M72,40.52V43c-.63,1.21-.63,2.64-1.36,3.81a4.2,4.2,0,0,1-2.1-2c-1.25-2-2.45-4-3.64-6-1.45-2.45-1.44-2.46-4.19-1.91-3,.59-5.72-1.17-6-4a26.31,26.31,0,0,1,.12-4.69c.44-4.88.74-7-4.52-9.85-1.74-.95-3.54-1.8-5.27-2.77-4.21-2.35-7.62-5.36-8.33-10.5.82-.36,1.79-.13,2.55-.7h6.6c.17.1.33.27.51.29A27.3,27.3,0,0,1,55.52,7.9c5.23,2.85,9.11,6.81,10.37,12.87a27.65,27.65,0,0,1,0,10.61,2.38,2.38,0,0,0,.8,2.48A20.28,20.28,0,0,1,72,40.52Z" transform="translate(0 -4.36)"/>
    <path class="cls-3" d="M70.64,46.85c-1.07,3.25-1.58,6.7-3.35,9.7L67,56.9H67c-1.29.21-2.1,1.31-3.27,1.77-1.54.6-2.55.08-2.77-1.56,0-.21,0-.42,0-.63,0-.53-.06-1.14-.59-1.36s-.85.42-1.15.8c-1.44,1.86-2.74,3.84-4.78,5.14-2.33,1.49-4,1.17-5.39-1.2-1.62-2.71-2-5.8-2.5-8.83-.12-.69-.11-1.5-.78-1.78s-1.3.46-1.82.94-.73.75-1.11,1.11a2.15,2.15,0,0,1-2.4.74A2.57,2.57,0,0,1,39,49.63a25,25,0,0,1,.76-8.08c.25-.95.38-2-.44-2.63s-1.85-.1-2.59.41c-2.11,1.45-4.13,3-6.22,4.5a33.14,33.14,0,0,1-8.91,4.86c-2.23.73-3.21-.19-2.65-2.52a21.64,21.64,0,0,1,2.74-5.79c.42-.72.9-1.41,1.29-2.15a2.15,2.15,0,0,0,0-2.38,2.08,2.08,0,0,0-2.31-.56,5.22,5.22,0,0,1-3.08-.06,1.84,1.84,0,0,1-1.35-2.29c.32-2.2,1.71-3.78,2.94-5.45,1.45-2,1.33-2.62-.84-3.72-.37-.18-.74-.39-1.13-.55-4.73-1.95-5.79-5.65-4.46-10.27.38-1.29,1.38-2.43,1-3.91C15.51,8,17.18,6.78,19,5.88a8.71,8.71,0,0,1,6.74-.09,11.64,11.64,0,0,0,8.74-.21,13.25,13.25,0,0,1,2.28-.52c.71,5.14,4.12,8.15,8.33,10.5,1.73,1,3.53,1.82,5.27,2.77,5.26,2.88,5,5,4.52,9.85a26.31,26.31,0,0,0-.12,4.69c.24,2.85,3,4.61,6,4,2.75-.55,2.74-.54,4.19,1.91,1.19,2,2.39,4.05,3.64,6A4.2,4.2,0,0,0,70.64,46.85ZM24.9,10.94c-.5.08-1.07.15-1.63.25-2.42.42-4.5,3.05-4,5.11a4.7,4.7,0,0,0,6,3.28,13,13,0,0,0,6.25-4c1.44-1.63,1.08-3-1-3.67A28.77,28.77,0,0,0,24.9,10.94ZM58.53,46.58c0-2.66-1.19-4.32-3.19-4.47a4.1,4.1,0,0,0-4,3.69,8.67,8.67,0,0,0,1.56,6.38,2,2,0,0,0,3.45.11A8.56,8.56,0,0,0,58.53,46.58ZM28.91,28.86a7.07,7.07,0,0,0,5.5-3.65c.33-.78.62-1.59,0-2.35a2.13,2.13,0,0,0-2.47-.44,7.6,7.6,0,0,0-4.57,4C26.67,27.82,27.38,28.84,28.91,28.86Z" transform="translate(0 -4.36)"/>
    <path class="cls-1" d="M67,56.9l.31-.35C67.27,56.74,67.22,56.91,67,56.9Z" transform="translate(0 -4.36)"/>
    <path class="cls-4" d="M24.9,10.94a28.77,28.77,0,0,1,5.64,1c2.06.69,2.42,2,1,3.67a13,13,0,0,1-6.25,4,4.7,4.7,0,0,1-6-3.28c-.46-2.06,1.62-4.69,4-5.11C23.83,11.09,24.4,11,24.9,10.94Z" transform="translate(0 -4.36)"/>
    <path class="cls-4" d="M58.53,46.58a8.56,8.56,0,0,1-2.18,5.71,2,2,0,0,1-3.45-.11,8.67,8.67,0,0,1-1.56-6.38,4.1,4.1,0,0,1,4-3.69C57.34,42.26,58.52,43.92,58.53,46.58Z" transform="translate(0 -4.36)"/>
    <path class="cls-4" d="M28.91,28.86c-1.53,0-2.24-1-1.57-2.39a7.6,7.6,0,0,1,4.57-4,2.13,2.13,0,0,1,2.47.44c.65.76.36,1.57,0,2.35A7.07,7.07,0,0,1,28.91,28.86Z" transform="translate(0 -4.36)"/>
  </g>
</svg>
