<?xml version="1.0" encoding="utf-8"?>
<!-- Generator: Adobe Illustrator 22.0.1, SVG Export Plug-In . SVG Version: 6.00 Build 0)  -->
<svg version="1.1" id="Layer_1" xmlns="http://www.w3.org/2000/svg" xmlns:xlink="http://www.w3.org/1999/xlink" x="0px" y="0px"
	 viewBox="0 0 72 72" style="enable-background:new 0 0 72 72;" xml:space="preserve">
<style type="text/css">
	.st0{clip-path:url(#SVGID_2_);fill:#EB2227;}
	.st1{clip-path:url(#SVGID_2_);fill:#EB2427;}
	.st2{clip-path:url(#SVGID_2_);fill:#EB2627;}
	.st3{clip-path:url(#SVGID_2_);fill:#EC2527;}
	.st4{clip-path:url(#SVGID_2_);fill:#EC2727;}
	.st5{clip-path:url(#SVGID_2_);fill:#ED2926;}
	.st6{clip-path:url(#SVGID_2_);fill:#ED2A26;}
	.st7{clip-path:url(#SVGID_2_);fill:#EC2C27;}
	.st8{clip-path:url(#SVGID_2_);fill:#EC2D27;}
	.st9{clip-path:url(#SVGID_2_);fill:#ED2F26;}
	.st10{clip-path:url(#SVGID_2_);fill:#EE2F26;}
	.st11{clip-path:url(#SVGID_2_);fill:#EE3026;}
	.st12{clip-path:url(#SVGID_2_);fill:#EE3226;}
	.st13{clip-path:url(#SVGID_2_);fill:#EE3326;}
	.st14{clip-path:url(#SVGID_2_);fill:#EE3426;}
	.st15{clip-path:url(#SVGID_2_);fill:#EE3625;}
	.st16{clip-path:url(#SVGID_2_);fill:#EE3626;}
	.st17{clip-path:url(#SVGID_2_);fill:#EE3726;}
	.st18{clip-path:url(#SVGID_2_);fill:#EF3826;}
	.st19{clip-path:url(#SVGID_2_);fill:#EF3926;}
	.st20{clip-path:url(#SVGID_2_);fill:#EF3B26;}
	.st21{clip-path:url(#SVGID_2_);fill:#EF3C26;}
	.st22{clip-path:url(#SVGID_2_);fill:#EF3D26;}
	.st23{clip-path:url(#SVGID_2_);fill:#EF3D25;}
	.st24{clip-path:url(#SVGID_2_);fill:#EF3E25;}
	.st25{clip-path:url(#SVGID_2_);fill:#EF3F25;}
	.st26{clip-path:url(#SVGID_2_);fill:#EF4025;}
	.st27{clip-path:url(#SVGID_2_);fill:#EF4125;}
	.st28{clip-path:url(#SVGID_2_);fill:#EF4225;}
	.st29{clip-path:url(#SVGID_2_);fill:#EF4325;}
	.st30{clip-path:url(#SVGID_2_);fill:#EF4524;}
	.st31{clip-path:url(#SVGID_2_);fill:#EF4624;}
	.st32{clip-path:url(#SVGID_2_);fill:#EF4824;}
	.st33{clip-path:url(#SVGID_2_);fill:#F04925;}
	.st34{clip-path:url(#SVGID_2_);fill:#F04A25;}
	.st35{clip-path:url(#SVGID_2_);fill:#F04B26;}
	.st36{clip-path:url(#SVGID_2_);fill:#F04C26;}
	.st37{clip-path:url(#SVGID_2_);fill:#F04D26;}
	.st38{clip-path:url(#SVGID_2_);fill:#F04E27;}
	.st39{clip-path:url(#SVGID_2_);fill:#F04F27;}
	.st40{clip-path:url(#SVGID_2_);fill:#F05027;}
	.st41{clip-path:url(#SVGID_2_);fill:#F05127;}
	.st42{clip-path:url(#SVGID_2_);fill:#F05228;}
	.st43{clip-path:url(#SVGID_2_);fill:#F05328;}
	.st44{clip-path:url(#SVGID_2_);fill:#F05428;}
	.st45{clip-path:url(#SVGID_2_);fill:#F15628;}
	.st46{clip-path:url(#SVGID_2_);fill:#F15728;}
	.st47{clip-path:url(#SVGID_2_);fill:#F15828;}
	.st48{clip-path:url(#SVGID_2_);fill:#F15928;}
	.st49{clip-path:url(#SVGID_2_);fill:#F15A28;}
	.st50{clip-path:url(#SVGID_2_);fill:#F15B28;}
	.st51{clip-path:url(#SVGID_2_);fill:#F15C28;}
	.st52{clip-path:url(#SVGID_2_);fill:#F15E28;}
	.st53{clip-path:url(#SVGID_2_);fill:#F15F29;}
	.st54{clip-path:url(#SVGID_2_);fill:#F16028;}
	.st55{clip-path:url(#SVGID_2_);fill:#F26128;}
	.st56{clip-path:url(#SVGID_2_);fill:#F26328;}
	.st57{clip-path:url(#SVGID_2_);fill:#F26428;}
	.st58{clip-path:url(#SVGID_2_);fill:#F26527;}
	.st59{clip-path:url(#SVGID_2_);fill:#F26727;}
	.st60{clip-path:url(#SVGID_2_);fill:#F26827;}
	.st61{clip-path:url(#SVGID_2_);fill:#F26927;}
	.st62{clip-path:url(#SVGID_2_);fill:#F26A27;}
	.st63{clip-path:url(#SVGID_2_);fill:#F36B27;}
	.st64{clip-path:url(#SVGID_2_);fill:#F36D28;}
	.st65{clip-path:url(#SVGID_2_);fill:#F36E28;}
	.st66{clip-path:url(#SVGID_2_);fill:#F37029;}
	.st67{clip-path:url(#SVGID_2_);fill:#F37129;}
	.st68{clip-path:url(#SVGID_2_);fill:#F37229;}
	.st69{clip-path:url(#SVGID_2_);fill:#F37328;}
	.st70{clip-path:url(#SVGID_2_);fill:#F47528;}
	.st71{clip-path:url(#SVGID_2_);fill:#F47628;}
	.st72{clip-path:url(#SVGID_2_);fill:#F47627;}
	.st73{clip-path:url(#SVGID_2_);fill:#F47727;}
	.st74{clip-path:url(#SVGID_2_);fill:#F47926;}
	.st75{clip-path:url(#SVGID_2_);fill:#F47A25;}
	.st76{clip-path:url(#SVGID_2_);fill:#F47B24;}
	.st77{clip-path:url(#SVGID_2_);fill:#F47D24;}
	.st78{clip-path:url(#SVGID_2_);fill:#F57E24;}
	.st79{clip-path:url(#SVGID_2_);fill:#F57F25;}
	.st80{clip-path:url(#SVGID_2_);fill:#F58125;}
	.st81{clip-path:url(#SVGID_2_);fill:#F58325;}
	.st82{clip-path:url(#SVGID_2_);fill:#F58425;}
	.st83{clip-path:url(#SVGID_2_);fill:#F68525;}
	.st84{clip-path:url(#SVGID_2_);fill:#F68626;}
	.st85{clip-path:url(#SVGID_2_);fill:#F68827;}
	.st86{clip-path:url(#SVGID_2_);fill:#F68929;}
	.st87{clip-path:url(#SVGID_2_);fill:#F68A29;}
	.st88{clip-path:url(#SVGID_2_);fill:#F78C2A;}
	.st89{clip-path:url(#SVGID_2_);fill:#F78D2A;}
	.st90{clip-path:url(#SVGID_2_);fill:#F78F2A;}
	.st91{clip-path:url(#SVGID_2_);fill:#F7902A;}
	.st92{clip-path:url(#SVGID_2_);fill:#F7932A;}
	.st93{clip-path:url(#SVGID_2_);fill:#F7942A;}
	.st94{clip-path:url(#SVGID_2_);fill:#F8952A;}
	.st95{clip-path:url(#SVGID_2_);fill:#F89729;}
	.st96{clip-path:url(#SVGID_2_);fill:#F89929;}
	.st97{clip-path:url(#SVGID_2_);fill:#F89A2A;}
	.st98{clip-path:url(#SVGID_2_);fill:#F99C2A;}
	.st99{clip-path:url(#SVGID_2_);fill:#F99E2A;}
	.st100{clip-path:url(#SVGID_2_);fill:#F9A029;}
	.st101{clip-path:url(#SVGID_2_);fill:#F9A129;}
	.st102{clip-path:url(#SVGID_2_);fill:#FAA329;}
	.st103{clip-path:url(#SVGID_2_);fill:#FAA328;}
	.st104{clip-path:url(#SVGID_2_);fill:#FAA627;}
	.st105{clip-path:url(#SVGID_2_);fill:#FBA826;}
	.st106{clip-path:url(#SVGID_2_);fill:#FBAA26;}
	.st107{clip-path:url(#SVGID_2_);fill:#FBAB27;}
	.st108{clip-path:url(#SVGID_2_);fill:#FBAD28;}
	.st109{clip-path:url(#SVGID_2_);fill:#FBAE28;}
	.st110{clip-path:url(#SVGID_2_);fill:#FCB027;}
	.st111{clip-path:url(#SVGID_2_);fill:#FCB127;}
	.st112{clip-path:url(#SVGID_2_);fill:#FCB324;}
	.st113{clip-path:url(#SVGID_2_);fill:#FDB525;}
	.st114{clip-path:url(#SVGID_2_);fill:#FDB625;}
	.st115{clip-path:url(#SVGID_2_);fill:#FDB826;}
	.st116{clip-path:url(#SVGID_2_);fill:#FDB927;}
	.st117{clip-path:url(#SVGID_2_);fill:#FCBA28;}
	.st118{clip-path:url(#SVGID_2_);fill:#FEBD2A;}
	.st119{clip-path:url(#SVGID_2_);fill:#FEBE2A;}
	.st120{clip-path:url(#SVGID_2_);fill:#FDC029;}
	.st121{clip-path:url(#SVGID_2_);fill:#FDC22A;}
	.st122{clip-path:url(#SVGID_2_);fill:#FDC32B;}
	.st123{clip-path:url(#SVGID_2_);fill:#FFC62A;}
	.st124{clip-path:url(#SVGID_2_);fill:#FFC82B;}
	.st125{clip-path:url(#SVGID_2_);fill:#FFC92B;}
	.st126{clip-path:url(#SVGID_2_);fill:#FFCB2A;}
	.st127{opacity:0.5;}
	.st128{fill:#FFFFFF;}
	.st129{opacity:0.3;}
	.st130{fill:#371A45;}
	.st131{fill:#FFD553;}
	.st132{opacity:0.25;}
	.st133{opacity:0.35;}
	.st134{fill:#48A3DA;}
	.st135{opacity:0.6;}
	.st136{fill:#EB2227;}
	.st137{fill:#D35659;}
	.st138{fill:#73CFE9;}
	.st139{opacity:0.2;}
	.st140{opacity:0.7;}
	.st141{fill:#111A28;}
	.st142{fill:#3FA3DB;}
</style>
<g>
	<g>
		<g>
			<g>
				<g>
					<defs>
						<path id="SVGID_1_" d="M4.6,67.3c7.6-3.3,10,2,14.8-0.1c4.8-2.1,3.6-7.6,3.6-7.6s-3.2-4.7-8-2.6C10.2,59,12.2,64.1,4.6,67.3z"
							/>
					</defs>
					<clipPath id="SVGID_2_">
						<use xlink:href="#SVGID_1_"  style="overflow:visible;"/>
					</clipPath>
					<polygon class="st0" points="4.6,67.3 5.7,69.3 4.6,69.3 					"/>
					<polygon class="st0" points="4.6,67.1 5.8,69.3 5.7,69.3 4.6,67.3 					"/>
					<polygon class="st0" points="4.6,66.8 5.9,69.3 5.8,69.3 4.6,67.1 					"/>
					<polygon class="st0" points="4.6,66.6 6,69.3 5.9,69.3 4.6,66.8 					"/>
					<polygon class="st0" points="4.6,66.4 6.2,69.3 6,69.3 4.6,66.6 					"/>
					<polygon class="st0" points="4.6,66.1 6.3,69.3 6.2,69.3 4.6,66.4 					"/>
					<polygon class="st0" points="4.6,65.9 6.4,69.3 6.3,69.3 4.6,66.1 					"/>
					<polygon class="st0" points="4.6,65.6 6.6,69.3 6.4,69.3 4.6,65.9 					"/>
					<polygon class="st0" points="4.6,65.4 6.7,69.3 6.6,69.3 4.6,65.6 					"/>
					<polygon class="st0" points="4.6,65.1 6.8,69.3 6.7,69.3 4.6,65.4 					"/>
					<polygon class="st0" points="4.6,64.9 6.9,69.3 6.8,69.3 4.6,65.1 					"/>
					<polygon class="st0" points="4.6,64.7 7.1,69.3 6.9,69.3 4.6,64.9 					"/>
					<polygon class="st1" points="4.6,64.4 7.2,69.3 7.1,69.3 4.6,64.7 					"/>
					<polygon class="st1" points="4.6,64.2 7.3,69.3 7.2,69.3 4.6,64.4 					"/>
					<polygon class="st1" points="4.6,63.9 7.5,69.3 7.3,69.3 4.6,64.2 					"/>
					<polygon class="st1" points="4.6,63.7 7.6,69.3 7.5,69.3 4.6,63.9 					"/>
					<polygon class="st1" points="4.6,63.4 7.7,69.3 7.6,69.3 4.6,63.7 					"/>
					<polygon class="st1" points="4.6,63.2 7.9,69.3 7.7,69.3 4.6,63.4 					"/>
					<polygon class="st2" points="4.6,63 8,69.3 7.9,69.3 4.6,63.2 					"/>
					<polygon class="st2" points="4.6,62.7 8.1,69.3 8,69.3 4.6,63 					"/>
					<polygon class="st2" points="4.6,62.5 8.2,69.3 8.1,69.3 4.6,62.7 					"/>
					<polygon class="st3" points="4.6,62.2 8.4,69.3 8.2,69.3 4.6,62.5 					"/>
					<polygon class="st3" points="4.6,62 8.5,69.3 8.4,69.3 4.6,62.2 					"/>
					<polygon class="st3" points="4.6,61.7 8.6,69.3 8.5,69.3 4.6,62 					"/>
					<polygon class="st4" points="4.6,61.7 4.7,61.7 8.8,69.3 8.6,69.3 4.6,61.7 					"/>
					<polygon class="st4" points="4.7,61.7 4.8,61.6 8.9,69.3 8.8,69.3 					"/>
					<polygon class="st4" points="4.8,61.6 4.9,61.5 9,69.3 8.9,69.3 					"/>
					<polygon class="st4" points="4.9,61.5 5,61.5 9.1,69.3 9,69.3 					"/>
					<polygon class="st5" points="5,61.5 5.1,61.4 9.3,69.3 9.1,69.3 					"/>
					<polygon class="st5" points="5.1,61.4 5.2,61.4 9.4,69.3 9.3,69.3 					"/>
					<polygon class="st6" points="5.2,61.4 5.3,61.3 9.5,69.3 9.4,69.3 					"/>
					<polygon class="st6" points="5.3,61.3 5.4,61.3 9.7,69.3 9.5,69.3 					"/>
					<polygon class="st7" points="5.4,61.3 5.5,61.2 9.8,69.3 9.7,69.3 					"/>
					<polygon class="st7" points="5.5,61.2 5.6,61.2 9.9,69.3 9.8,69.3 					"/>
					<polygon class="st7" points="5.6,61.2 5.7,61.1 10,69.3 9.9,69.3 					"/>
					<polygon class="st7" points="5.7,61.1 5.8,61.1 10.2,69.3 10,69.3 					"/>
					<polygon class="st8" points="5.8,61.1 5.9,61 10.3,69.3 10.2,69.3 					"/>
					<polygon class="st8" points="5.9,61 6,61 10.4,69.3 10.3,69.3 					"/>
					<polygon class="st8" points="6,61 6.1,60.9 10.6,69.3 10.4,69.3 					"/>
					<polygon class="st9" points="6.1,60.9 6.2,60.9 10.7,69.3 10.6,69.3 					"/>
					<polygon class="st10" points="6.2,60.9 6.3,60.8 10.8,69.3 10.7,69.3 					"/>
					<polygon class="st10" points="6.3,60.8 6.4,60.7 11,69.3 10.8,69.3 					"/>
					<polygon class="st10" points="6.4,60.7 6.5,60.7 11.1,69.3 11,69.3 					"/>
					<polygon class="st11" points="6.5,60.7 6.6,60.6 11.2,69.3 11.1,69.3 					"/>
					<polygon class="st11" points="6.6,60.6 6.7,60.6 11.3,69.3 11.2,69.3 					"/>
					<polygon class="st11" points="6.7,60.6 6.8,60.5 11.5,69.3 11.3,69.3 					"/>
					<polygon class="st12" points="6.8,60.5 6.9,60.5 11.6,69.3 11.5,69.3 					"/>
					<polygon class="st13" points="6.9,60.5 7,60.4 11.7,69.3 11.6,69.3 					"/>
					<polygon class="st13" points="7,60.4 7.1,60.4 11.9,69.3 11.7,69.3 					"/>
					<polygon class="st14" points="7.1,60.4 7.2,60.3 12,69.3 11.9,69.3 					"/>
					<polygon class="st14" points="7.2,60.3 7.3,60.3 12.1,69.3 12,69.3 					"/>
					<polygon class="st15" points="7.3,60.3 7.4,60.2 12.2,69.3 12.1,69.3 					"/>
					<polygon class="st16" points="7.4,60.2 7.5,60.2 12.4,69.3 12.2,69.3 					"/>
					<polygon class="st17" points="7.5,60.2 7.6,60.1 12.5,69.3 12.4,69.3 					"/>
					<polygon class="st18" points="7.6,60.1 7.7,60 12.6,69.3 12.5,69.3 					"/>
					<polygon class="st19" points="7.7,60 7.8,60 12.8,69.3 12.6,69.3 					"/>
					<polygon class="st19" points="7.8,60 7.9,59.9 12.9,69.3 12.8,69.3 					"/>
					<polygon class="st19" points="7.9,59.9 8,59.9 13,69.3 12.9,69.3 					"/>
					<polygon class="st20" points="8,59.9 8.1,59.8 13.1,69.3 13,69.3 					"/>
					<polygon class="st21" points="8.1,59.8 8.2,59.8 13.3,69.3 13.1,69.3 					"/>
					<polygon class="st22" points="8.2,59.8 8.3,59.7 13.4,69.3 13.3,69.3 					"/>
					<polygon class="st22" points="8.3,59.7 8.4,59.7 13.5,69.3 13.4,69.3 					"/>
					<polygon class="st23" points="8.4,59.7 8.5,59.6 13.7,69.3 13.5,69.3 					"/>
					<polygon class="st24" points="8.5,59.6 8.6,59.6 13.8,69.3 13.7,69.3 					"/>
					<polygon class="st25" points="8.6,59.6 8.7,59.5 13.9,69.3 13.8,69.3 					"/>
					<polygon class="st25" points="8.7,59.5 8.8,59.5 14.1,69.3 13.9,69.3 					"/>
					<polygon class="st26" points="8.8,59.5 8.9,59.4 14.2,69.3 14.1,69.3 					"/>
					<polygon class="st26" points="8.9,59.4 9,59.4 14.3,69.3 14.2,69.3 					"/>
					<polygon class="st26" points="9,59.4 9.1,59.3 14.4,69.3 14.3,69.3 					"/>
					<polygon class="st27" points="9.1,59.3 9.2,59.2 14.6,69.3 14.4,69.3 					"/>
					<polygon class="st28" points="9.2,59.2 9.3,59.2 14.7,69.3 14.6,69.3 					"/>
					<polygon class="st29" points="9.3,59.2 9.4,59.1 14.8,69.3 14.7,69.3 					"/>
					<polygon class="st30" points="9.4,59.1 9.5,59.1 15,69.3 14.8,69.3 					"/>
					<polygon class="st31" points="9.5,59.1 9.6,59 15.1,69.3 15,69.3 					"/>
					<polygon class="st32" points="9.6,59 9.7,59 15.2,69.3 15.1,69.3 					"/>
					<polygon class="st33" points="9.7,59 9.8,58.9 15.3,69.3 15.2,69.3 					"/>
					<polygon class="st34" points="9.8,58.9 9.9,58.9 15.5,69.3 15.3,69.3 					"/>
					<polygon class="st34" points="9.9,58.9 10,58.8 15.6,69.3 15.5,69.3 					"/>
					<polygon class="st35" points="10,58.8 10.1,58.8 15.7,69.3 15.6,69.3 					"/>
					<polygon class="st36" points="10.1,58.8 10.2,58.7 15.9,69.3 15.7,69.3 					"/>
					<polygon class="st37" points="10.2,58.7 10.3,58.7 16,69.3 15.9,69.3 					"/>
					<polygon class="st38" points="10.3,58.7 10.4,58.6 16.1,69.3 16,69.3 					"/>
					<polygon class="st39" points="10.4,58.6 10.5,58.6 16.2,69.3 16.1,69.3 					"/>
					<polygon class="st40" points="10.5,58.6 10.6,58.5 16.4,69.3 16.2,69.3 					"/>
					<polygon class="st41" points="10.6,58.5 10.7,58.4 16.5,69.3 16.4,69.3 					"/>
					<polygon class="st42" points="10.7,58.4 10.8,58.4 16.6,69.3 16.5,69.3 					"/>
					<polygon class="st43" points="10.8,58.4 10.9,58.3 16.8,69.3 16.6,69.3 					"/>
					<polygon class="st44" points="10.9,58.3 11,58.3 16.9,69.3 16.8,69.3 					"/>
					<polygon class="st45" points="11,58.3 11.1,58.2 17,69.2 16.9,69.3 16.9,69.3 					"/>
					
						<rect x="14.1" y="57.5" transform="matrix(0.8829 -0.4695 0.4695 0.8829 -28.2563 14.0855)" class="st46" width="0.1" height="12.5"/>
					
						<rect x="14.2" y="57.4" transform="matrix(0.8829 -0.4695 0.4695 0.8829 -28.2203 14.1273)" class="st46" width="0.1" height="12.5"/>
					
						<rect x="14.3" y="57.4" transform="matrix(0.8829 -0.4695 0.4695 0.8829 -28.1825 14.1675)" class="st47" width="0.1" height="12.5"/>
					
						<rect x="14.4" y="57.3" transform="matrix(0.8829 -0.4695 0.4695 0.8829 -28.1464 14.2092)" class="st48" width="0.1" height="12.5"/>
					
						<rect x="14.5" y="57.3" transform="matrix(0.8829 -0.4695 0.4695 0.8829 -28.1097 14.2504)" class="st49" width="0.1" height="12.5"/>
					
						<rect x="14.6" y="57.2" transform="matrix(0.8829 -0.4695 0.4695 0.8829 -28.0723 14.2909)" class="st50" width="0.1" height="12.5"/>
					
						<rect x="14.7" y="57.2" transform="matrix(0.8829 -0.4695 0.4695 0.8829 -28.0358 14.3322)" class="st51" width="0.1" height="12.5"/>
					
						<rect x="14.8" y="57.1" transform="matrix(0.8829 -0.4695 0.4695 0.8829 -27.9979 14.3724)" class="st52" width="0.1" height="12.5"/>
					
						<rect x="14.9" y="57" transform="matrix(0.8829 -0.4695 0.4695 0.8829 -27.962 14.4142)" class="st52" width="0.1" height="12.5"/>
					
						<rect x="15" y="57" transform="matrix(0.8829 -0.4695 0.4695 0.8829 -27.925 14.4552)" class="st53" width="0.1" height="12.5"/>
					
						<rect x="15.1" y="56.9" transform="matrix(0.8829 -0.4695 0.4695 0.8829 -27.8872 14.4954)" class="st54" width="0.1" height="12.5"/>
					
						<rect x="15.2" y="56.9" transform="matrix(0.8829 -0.4695 0.4695 0.8829 -27.8512 14.5372)" class="st55" width="0.1" height="12.5"/>
					
						<rect x="15.3" y="56.8" transform="matrix(0.8829 -0.4695 0.4695 0.8829 -27.8132 14.5773)" class="st56" width="0.1" height="12.5"/>
					
						<rect x="15.4" y="56.8" transform="matrix(0.8829 -0.4695 0.4695 0.8829 -27.7774 14.6192)" class="st57" width="0.1" height="12.5"/>
					
						<rect x="15.5" y="56.7" transform="matrix(0.8829 -0.4695 0.4695 0.8829 -27.7405 14.6602)" class="st58" width="0.1" height="12.5"/>
					
						<rect x="15.6" y="56.7" transform="matrix(0.8829 -0.4695 0.4695 0.8829 -27.7026 14.7003)" class="st59" width="0.1" height="12.5"/>
					
						<rect x="15.7" y="56.6" transform="matrix(0.8829 -0.4695 0.4695 0.8829 -27.6666 14.7422)" class="st60" width="0.1" height="12.5"/>
					
						<rect x="15.8" y="56.6" transform="matrix(0.8829 -0.4695 0.4695 0.8829 -27.6288 14.7823)" class="st61" width="0.1" height="12.5"/>
					
						<rect x="15.9" y="56.5" transform="matrix(0.8829 -0.4695 0.4695 0.8829 -27.5928 14.8241)" class="st62" width="0.1" height="12.5"/>
					
						<rect x="16" y="56.5" transform="matrix(0.8829 -0.4695 0.4695 0.8829 -27.5559 14.8651)" class="st63" width="0.1" height="12.5"/>
					
						<rect x="16.1" y="56.4" transform="matrix(0.8829 -0.4695 0.4695 0.8829 -27.5181 14.9053)" class="st64" width="0.1" height="12.5"/>
					
						<rect x="16.2" y="56.3" transform="matrix(0.8829 -0.4695 0.4695 0.8829 -27.4821 14.9471)" class="st64" width="0.1" height="12.5"/>
					
						<rect x="16.3" y="56.3" transform="matrix(0.8829 -0.4695 0.4695 0.8829 -27.4443 14.9873)" class="st65" width="0.1" height="12.5"/>
					
						<rect x="16.4" y="56.2" transform="matrix(0.8829 -0.4695 0.4695 0.8829 -27.4083 15.0291)" class="st66" width="0.1" height="12.5"/>
					
						<rect x="16.5" y="56.2" transform="matrix(0.8829 -0.4695 0.4695 0.8829 -27.3713 15.0701)" class="st67" width="0.1" height="12.5"/>
					
						<rect x="16.6" y="56.1" transform="matrix(0.8829 -0.4695 0.4695 0.8829 -27.3335 15.1102)" class="st68" width="0.1" height="12.5"/>
					
						<rect x="16.7" y="56.1" transform="matrix(0.8829 -0.4695 0.4695 0.8829 -27.2975 15.1521)" class="st69" width="0.1" height="12.5"/>
					
						<rect x="16.8" y="56" transform="matrix(0.8829 -0.4695 0.4695 0.8829 -27.2597 15.1922)" class="st70" width="0.1" height="12.5"/>
					
						<rect x="16.9" y="56" transform="matrix(0.8829 -0.4695 0.4695 0.8829 -27.2237 15.234)" class="st71" width="0.1" height="12.5"/>
					
						<rect x="17" y="55.9" transform="matrix(0.8829 -0.4695 0.4695 0.8829 -27.1868 15.275)" class="st72" width="0.1" height="12.5"/>
					
						<rect x="17.1" y="55.9" transform="matrix(0.8829 -0.4695 0.4695 0.8829 -27.149 15.3152)" class="st73" width="0.1" height="12.5"/>
					
						<rect x="17.2" y="55.8" transform="matrix(0.8829 -0.4695 0.4695 0.8829 -27.113 15.357)" class="st74" width="0.1" height="12.5"/>
					
						<rect x="17.3" y="55.8" transform="matrix(0.8829 -0.4695 0.4695 0.8829 -27.0751 15.3972)" class="st75" width="0.1" height="12.5"/>
					
						<rect x="17.4" y="55.7" transform="matrix(0.8829 -0.4695 0.4695 0.8829 -27.0391 15.439)" class="st76" width="0.1" height="12.5"/>
					
						<rect x="17.5" y="55.7" transform="matrix(0.8829 -0.4695 0.4695 0.8829 -27.0022 15.48)" class="st77" width="0.1" height="12.5"/>
					
						<rect x="17.6" y="55.6" transform="matrix(0.8829 -0.4695 0.4695 0.8829 -26.9644 15.5201)" class="st78" width="0.1" height="12.5"/>
					
						<rect x="17.7" y="55.5" transform="matrix(0.8829 -0.4695 0.4695 0.8829 -26.9284 15.562)" class="st79" width="0.1" height="12.5"/>
					
						<rect x="17.8" y="55.5" transform="matrix(0.8829 -0.4695 0.4695 0.8829 -26.8906 15.6021)" class="st80" width="0.1" height="12.5"/>
					
						<rect x="17.9" y="55.4" transform="matrix(0.8829 -0.4695 0.4695 0.8829 -26.8546 15.644)" class="st81" width="0.1" height="12.5"/>
					
						<rect x="18" y="55.4" transform="matrix(0.8829 -0.4695 0.4695 0.8829 -26.8176 15.6849)" class="st82" width="0.1" height="12.5"/>
					
						<rect x="18.1" y="55.3" transform="matrix(0.8829 -0.4695 0.4695 0.8829 -26.7799 15.7251)" class="st83" width="0.1" height="12.5"/>
					
						<rect x="18.2" y="55.3" transform="matrix(0.8829 -0.4695 0.4695 0.8829 -26.7438 15.7669)" class="st84" width="0.1" height="12.5"/>
					
						<rect x="18.3" y="55.2" transform="matrix(0.8829 -0.4695 0.4695 0.8829 -26.706 15.8071)" class="st85" width="0.1" height="12.5"/>
					
						<rect x="18.4" y="55.2" transform="matrix(0.8829 -0.4695 0.4695 0.8829 -26.67 15.8489)" class="st86" width="0.1" height="12.5"/>
					
						<rect x="18.5" y="55.1" transform="matrix(0.8829 -0.4695 0.4695 0.8829 -26.6331 15.8899)" class="st87" width="0.1" height="12.5"/>
					
						<rect x="18.6" y="55.1" transform="matrix(0.8829 -0.4695 0.4695 0.8829 -26.5953 15.93)" class="st88" width="0.1" height="12.5"/>
					
						<rect x="18.7" y="55" transform="matrix(0.8829 -0.4695 0.4695 0.8829 -26.5593 15.9719)" class="st89" width="0.1" height="12.5"/>
					
						<rect x="18.8" y="55" transform="matrix(0.8829 -0.4695 0.4695 0.8829 -26.5215 16.012)" class="st90" width="0.1" height="12.5"/>
					
						<rect x="18.9" y="54.9" transform="matrix(0.8829 -0.4695 0.4695 0.8829 -26.4854 16.0539)" class="st91" width="0.1" height="12.5"/>
					
						<rect x="19" y="54.9" transform="matrix(0.8829 -0.4695 0.4695 0.8829 -26.4485 16.0949)" class="st92" width="0.1" height="12.5"/>
					
						<rect x="19.1" y="54.8" transform="matrix(0.8829 -0.4695 0.4695 0.8829 -26.4107 16.135)" class="st93" width="0.1" height="12.5"/>
					
						<rect x="19.2" y="54.7" transform="matrix(0.8829 -0.4695 0.4695 0.8829 -26.3747 16.1768)" class="st94" width="0.1" height="12.5"/>
					
						<rect x="19.3" y="54.7" transform="matrix(0.8829 -0.4695 0.4695 0.8829 -26.3369 16.217)" class="st95" width="0.1" height="12.5"/>
					
						<rect x="19.4" y="54.6" transform="matrix(0.8829 -0.4695 0.4695 0.8829 -26.3009 16.2588)" class="st95" width="0.1" height="12.5"/>
					
						<rect x="19.5" y="54.6" transform="matrix(0.8829 -0.4695 0.4695 0.8829 -26.2631 16.2989)" class="st96" width="0.1" height="12.5"/>
					
						<rect x="19.6" y="54.5" transform="matrix(0.8829 -0.4695 0.4695 0.8829 -26.227 16.3408)" class="st97" width="0.1" height="12.5"/>
					
						<rect x="19.7" y="54.5" transform="matrix(0.8829 -0.4695 0.4695 0.8829 -26.1901 16.3818)" class="st98" width="0.1" height="12.5"/>
					
						<rect x="19.8" y="54.4" transform="matrix(0.8829 -0.4695 0.4695 0.8829 -26.1524 16.4219)" class="st99" width="0.1" height="12.5"/>
					
						<rect x="19.9" y="54.4" transform="matrix(0.8829 -0.4695 0.4695 0.8829 -26.1163 16.4638)" class="st100" width="0.1" height="12.5"/>
					
						<rect x="20" y="54.3" transform="matrix(0.8829 -0.4695 0.4695 0.8829 -26.0785 16.5039)" class="st101" width="0.1" height="12.5"/>
					
						<rect x="20.1" y="54.3" transform="matrix(0.8829 -0.4695 0.4695 0.8829 -26.0425 16.5458)" class="st102" width="0.1" height="12.5"/>
					
						<rect x="20.2" y="54.2" transform="matrix(0.8829 -0.4695 0.4695 0.8829 -26.0056 16.5868)" class="st103" width="0.1" height="12.5"/>
					<polygon class="st104" points="17.4,54.9 17.4,54.9 17.5,54.9 23.3,65.9 23.2,65.9 					"/>
					<polygon class="st104" points="17.6,54.9 23.4,65.8 23.3,65.9 17.5,54.9 					"/>
					<polygon class="st105" points="17.7,54.9 23.5,65.8 23.4,65.8 17.6,54.9 					"/>
					<polygon class="st106" points="17.9,54.9 23.6,65.7 23.5,65.8 17.7,54.9 					"/>
					<polygon class="st107" points="18,54.9 23.7,65.6 23.6,65.7 17.9,54.9 					"/>
					<polygon class="st108" points="18.1,54.9 23.8,65.6 23.7,65.6 18,54.9 					"/>
					<polygon class="st109" points="18.3,54.9 23.9,65.5 23.8,65.6 18.1,54.9 					"/>
					<polygon class="st110" points="18.4,54.9 24,65.5 23.9,65.5 18.3,54.9 					"/>
					<polygon class="st111" points="18.5,54.9 24.1,65.4 24,65.5 18.4,54.9 					"/>
					<polygon class="st112" points="18.7,54.9 24.2,65.3 24.2,65.4 24.1,65.4 18.5,54.9 					"/>
					<polygon class="st113" points="18.8,54.9 24.2,65 24.2,65.3 18.7,54.9 					"/>
					<polygon class="st114" points="18.9,54.9 24.2,64.8 24.2,65 18.8,54.9 					"/>
					<polygon class="st115" points="19,54.9 24.2,64.6 24.2,64.8 18.9,54.9 					"/>
					<polygon class="st116" points="19.2,54.9 24.2,64.3 24.2,64.6 19,54.9 					"/>
					<polygon class="st117" points="19.3,54.9 24.2,64.1 24.2,64.3 19.2,54.9 					"/>
					<polygon class="st118" points="19.4,54.9 24.2,63.8 24.2,64.1 19.3,54.9 					"/>
					<polygon class="st119" points="19.6,54.9 24.2,63.6 24.2,63.8 19.4,54.9 					"/>
					<polygon class="st120" points="19.7,54.9 24.2,63.3 24.2,63.6 19.6,54.9 					"/>
					<polygon class="st121" points="19.8,54.9 24.2,63.1 24.2,63.3 19.7,54.9 					"/>
					<polygon class="st122" points="19.9,54.9 24.2,62.9 24.2,63.1 19.8,54.9 					"/>
					<polygon class="st123" points="20.1,54.9 24.2,62.6 24.2,62.9 19.9,54.9 					"/>
					<polygon class="st124" points="20.2,54.9 24.2,62.4 24.2,62.6 20.1,54.9 					"/>
					<polygon class="st125" points="20.3,54.9 24.2,62.1 24.2,62.4 20.2,54.9 					"/>
					<polygon class="st126" points="20.5,54.9 24.2,61.9 24.2,62.1 20.3,54.9 					"/>
					<polygon class="st126" points="24.2,61.9 20.5,54.9 24.2,54.9 					"/>
				</g>
			</g>
			<g class="st127">
				<g>
					<path class="st128" d="M8.1,66.3c3.5-3,3-6.6,6.8-8.2c4.8-2.1,8,2.6,8,2.6s0.1,0.5,0.1,1.3c0.1-1.4-0.1-2.4-0.1-2.4
						s-3.2-4.7-8-2.6c-4.8,2.1-2.8,7.1-10.3,10.4C5.9,66.8,7.1,66.5,8.1,66.3z"/>
				</g>
			</g>
			<g class="st129">
				<path class="st130" d="M22.9,63.1c-0.6,0.9-1.4,1.7-2.7,2.3c-4,1.7-6.3-1.6-11.3-0.9c-1,1-2.3,2-4.3,2.9c7.6-3.3,10,2,14.8-0.1
					C21.6,66.3,22.5,64.6,22.9,63.1z"/>
			</g>
			<g>
				<path class="st131" d="M10.6,64.9C15,62.9,18,66,20.8,64.8c2.8-1.2,1.8-5.1,1.8-5.1s-2.2-3.4-5-2.2C14.8,58.7,15,62.9,10.6,64.9
					z"/>
			</g>
			<g>
				<path class="st130" d="M17,68.1c-1.2,0-2.3-0.3-3.4-0.6c-2.3-0.7-4.9-1.4-9,0.3c-0.2,0.1-0.4,0-0.5-0.2c0-0.1,0-0.1,0-0.2
					c0-0.2,0.1-0.3,0.2-0.4c4.1-1.8,5.4-4.1,6.5-6.2c0.9-1.7,1.8-3.3,4.1-4.3c2.1-0.9,4.2-0.7,6.2,0.6c1.5,0.9,2.3,2.1,2.3,2.2
					c0,0,0.1,0.1,0.1,0.1c0,0.1,0.3,1.5,0,3.2c-0.4,2.3-1.7,4-3.8,4.9C18.6,68,17.8,68.1,17,68.1z M9.4,65.9c1.7,0,3.1,0.4,4.4,0.8
					c1.9,0.5,3.5,1,5.4,0.1c4.1-1.8,3.5-6.4,3.3-7.1c-0.4-0.6-3.3-4.2-7.5-2.4c-2,0.9-2.8,2.3-3.7,4c-0.8,1.5-1.8,3.2-3.8,4.8
					C8.3,65.9,8.8,65.9,9.4,65.9z"/>
			</g>
		</g>
		<g>
			<path class="st128" d="M47.7,35.1c0,0,5.3,2.2,6.2,3.6c0.9,1.4-2.4,1.4-2.4,1.4"/>
		</g>
		<g>
			<path class="st130" d="M51.5,40.6c-0.1,0-0.3-0.1-0.4-0.2l-3.8-5c-0.1-0.2-0.1-0.4,0-0.6c0.1-0.2,0.4-0.2,0.6-0.1
				c0.6,0.2,5.5,2.3,6.4,3.8c0.3,0.5,0.2,0.9,0.1,1.2C53.9,40.5,52,40.6,51.5,40.6C51.5,40.6,51.5,40.6,51.5,40.6z M49.1,36.3
				l2.5,3.4c0.9,0,1.7-0.3,1.8-0.5c0,0,0-0.1-0.1-0.2C53,38.3,51,37.1,49.1,36.3z"/>
		</g>
		<g>
			<g>
				<path class="st128" d="M25.4,23.4c-2.1,1.5-3.9,8.9-3.5,13.3c0.5,4.4,8.2,4.7,12.6,4.6s4.4-10.2,4.4-12.8
					C38.8,24.2,28.5,21.1,25.4,23.4z"/>
			</g>
			<g class="st132">
				<path class="st130" d="M34.6,41.2c-4.4,0.1-12.2-0.2-12.6-4.6c-0.1-0.6-0.1-1.2-0.1-1.9c1.2,1,2.9,0.1,3.1-1.1
					c1.3-7.3,4-10,5.3-11c4,0.6,8.6,2.9,8.7,5.6C39,31.1,39,41.1,34.6,41.2z"/>
			</g>
			<g>
				<path class="st130" d="M33,41.7c-5.3,0-11.1-1-11.6-5C21,32.5,22.8,24.8,25.1,23c2.1-1.6,6.9-0.8,10.2,0.8
					c2.6,1.3,4.1,2.9,4.1,4.6c0.1,4.9-0.4,13.2-4.8,13.3C34.1,41.7,33.6,41.7,33,41.7z M28.5,23.1c-1.2,0-2.2,0.2-2.9,0.7l0,0
					c-1.9,1.4-3.7,8.6-3.3,12.8c0.4,3.9,7.8,4.3,12.2,4.1c3.9-0.1,4-9.5,3.9-12.4c0-1.3-1.3-2.7-3.6-3.8
					C32.8,23.6,30.4,23.1,28.5,23.1z M25.4,23.4L25.4,23.4L25.4,23.4z"/>
			</g>
			<g>
				<path class="st128" d="M25.8,30.8l-2-0.8c-0.4-0.2-0.9,0.1-1.1,0.5c-0.4,1.6-1,4.9,0.6,5.6c1.9,0.8,2.6-1.4,3-4.5
					C26.4,31.2,26.2,30.9,25.8,30.8z"/>
			</g>
			<g class="st132">
				<path class="st130" d="M26.3,31.6c-0.3,3.1-1,5.3-3,4.5c-0.8-0.3-1-1.3-1-2.4c0.2,0.3,0.4,0.6,0.7,0.7c1.7,0.7,2.5-1,2.8-3.6
					C26.2,30.9,26.4,31.2,26.3,31.6z"/>
			</g>
			<g>
				<path class="st130" d="M24.1,36.7c-0.3,0-0.6-0.1-0.9-0.2c-1.8-0.7-1.4-3.7-0.8-6.1c0.1-0.3,0.3-0.6,0.6-0.8
					c0.3-0.2,0.7-0.2,1,0l2,0.8c0.5,0.2,0.8,0.7,0.8,1.3c-0.3,2.8-0.8,4.3-1.8,4.8C24.7,36.6,24.4,36.7,24.1,36.7z M23.6,30.4
					c-0.1,0-0.1,0-0.2,0c-0.1,0-0.1,0.1-0.2,0.2c-0.6,2.1-0.8,4.6,0.3,5.1c0.4,0.2,0.7,0.2,1,0c1-0.6,1.3-3.3,1.4-4.2
					c0-0.2-0.1-0.3-0.2-0.4l-2-0.8C23.7,30.4,23.6,30.4,23.6,30.4z"/>
			</g>
			<g>
				<path class="st130" d="M25.1,23.4l2.3,1.1c0.8,0.4,1.5,0.7,2.3,1.1c0.1,0.1,0.2,0.2,0.1,0.3c-0.1,0.1-0.2,0.2-0.3,0.1l0,0
					c-0.8-0.3-1.6-0.6-2.4-0.9l-2.4-0.8l0,0c-0.2-0.1-0.4-0.4-0.3-0.6C24.6,23.4,24.8,23.3,25.1,23.4C25.1,23.4,25.1,23.4,25.1,23.4
					z"/>
			</g>
		</g>
		<g>
			<path class="st128" d="M60.7,22c-0.8,2.6-6.6,7.4-14.9,7.7c-0.8,0-1.6,0-2.5-0.1l-0.7-3.2L42,23.9c0,0,1.3-0.2,3.1-0.7
				c1.4-0.4,3.1-0.9,4.7-1.5c1.5-0.6,2.9-1.4,3.9-2.2c0,0,0.1-2.6,0.8-2.9c0.9-0.3,1.6,1.5,1.6,1.5s2.1-2.1,3.3-1.9
				C61,16.4,61.5,19.2,60.7,22z"/>
		</g>
		<g class="st133">
			<path class="st130" d="M61.1,19.9c0,0.7-0.2,1.4-0.4,2.1c-0.8,2.9-7.7,8.4-17.4,7.6L42,23.9c0,0,0.4-0.1,1.1-0.2l1.6,3
				C52.6,29.1,59.7,22.8,61.1,19.9z"/>
		</g>
		<g>
			<path class="st130" d="M45.2,30.2c-0.6,0-1.2,0-1.9-0.1c-0.3,0-0.5-0.2-0.4-0.5c0-0.3,0.2-0.5,0.5-0.4c9.5,0.8,16.1-4.7,16.9-7.3
				c0.5-1.8,0.5-3.6-0.1-4.6c-0.3-0.4-0.6-0.6-1-0.7c-0.7-0.1-2.1,1-2.8,1.8l-0.5,0.5l-0.3-0.7c-0.2-0.6-0.7-1.3-1-1.2
				c-0.2,0.2-0.5,1.3-0.5,2.4l0,0.2l-0.2,0.1c-3.4,3-11.5,4.5-11.8,4.6c-0.3,0-0.5-0.1-0.5-0.4c0-0.3,0.1-0.5,0.4-0.5
				c0.1,0,8-1.5,11.2-4.2c0-1,0.2-2.8,1.1-3.1c0.9-0.3,1.5,0.5,1.9,1.2c0.8-0.7,2.1-1.8,3.2-1.6c0.7,0.1,1.2,0.5,1.6,1.1
				c0.8,1.2,0.8,3.3,0.2,5.3C60.3,25,54,30.2,45.2,30.2z M54.5,17"/>
		</g>
		<g>
			<path class="st128" d="M52,40.9c0,0-11.6,4.5-15.7,4.2c-4.1-0.3-8.5-1-8.7-8.7c-0.1-4.8,2.2-9.6,4.1-12.5c1.1-1.8,2-2.8,2-2.8
				l11.2,0.6c0,0,0,0.6,0.1,1.6c0.1,0.6,0.1,1.4,0.2,2.2c0.1,1.2,0.3,2.7,0.5,4.2c0.3,2.3,0.8,4.8,1.3,6.9
				C47.4,37.5,51.2,37.8,52,40.9z"/>
		</g>
		<g>
			<path class="st130" d="M45.6,26.5c0.4,1.4,0.7,2.8,0.9,4.1c0.2,1.4,0.5,2.8,0.8,4.1c0.1,0.3,0.2,0.7,0.2,1l0.1,0.5l0,0.1l0,0l0,0
				l0,0c0,0,0,0,0,0c0,0,0,0,0,0c0,0,0,0,0,0c0,0,0,0,0,0c0,0,0,0,0,0c0,0,0,0,0.1,0c0.1,0.1,0.2,0.2,0.4,0.2
				c0.1,0.1,0.3,0.1,0.5,0.2c0.3,0.1,0.6,0.3,1,0.5c0.7,0.3,1.3,0.7,1.9,1.3c0.3,0.3,0.5,0.6,0.7,0.9c0.2,0.3,0.3,0.7,0.4,1.1
				l0.1,0.4l-0.4,0.2c-1.9,0.7-3.7,1.4-5.6,2c-1.9,0.6-3.8,1.2-5.7,1.6c-1,0.2-1.9,0.4-3,0.5c-0.5,0.1-1,0.1-1.6,0.1
				c-0.1,0-0.3,0-0.4,0l-0.4,0c-0.2,0-0.5,0-0.7-0.1c-1-0.1-2-0.3-3-0.7c-0.5-0.2-1-0.4-1.4-0.7c-0.4-0.3-0.9-0.6-1.2-1
				c-0.4-0.4-0.7-0.8-0.9-1.3c-0.3-0.5-0.5-0.9-0.6-1.4l-0.1-0.2L27.6,40l-0.1-0.4l-0.1-0.4l0-0.2l0-0.2l-0.1-0.4
				c0-0.1,0-0.3-0.1-0.4c0-0.3-0.1-0.5-0.1-0.8c-0.1-1-0.1-2,0-3c0.1-1,0.3-2,0.6-3c0.5-1.9,1.3-3.8,2.3-5.6
				c0.5-0.9,0.9-1.8,1.5-2.6c0.6-0.8,1.2-1.6,2-2.2c0.1-0.1,0.2,0,0.2,0c0,0,0,0.1,0,0.2l0,0c-0.4,0.9-0.9,1.7-1.4,2.6
				c-0.5,0.8-1,1.6-1.5,2.5c-0.9,1.7-1.7,3.5-2.2,5.4c-0.3,0.9-0.4,1.9-0.5,2.8c-0.1,1-0.1,1.9,0,2.9c0,0.2,0,0.5,0.1,0.7
				c0,0.1,0,0.2,0,0.4l0.1,0.4l0,0.2l0,0.2l0.1,0.3l0.1,0.3l0,0.2l0.1,0.2c0.1,0.4,0.3,0.9,0.5,1.3c0.2,0.4,0.5,0.8,0.8,1.1
				c0.6,0.7,1.4,1.1,2.3,1.5c0.9,0.3,1.8,0.5,2.8,0.6c0.2,0,0.5,0.1,0.7,0.1l0.4,0c0.1,0,0.2,0,0.4,0c0.1,0,0.2,0,0.3,0l0.3,0
				c0.2,0,0.5,0,0.7-0.1c0.9-0.1,1.9-0.3,2.8-0.5c1.9-0.4,3.8-1,5.6-1.6c1.9-0.6,3.7-1.3,5.5-2L51.6,41c-0.2-0.6-0.5-1.2-0.9-1.6
				c-0.4-0.5-1-0.8-1.6-1.1c-0.3-0.2-0.6-0.3-0.9-0.4c-0.2-0.1-0.3-0.1-0.5-0.2c-0.2-0.1-0.3-0.2-0.5-0.3c0,0-0.1-0.1-0.1-0.1
				l-0.1-0.1c0,0,0-0.1-0.1-0.1c0-0.1-0.1-0.2-0.1-0.2l0-0.1l-0.1-0.5c-0.1-0.3-0.2-0.7-0.2-1c-0.2-0.7-0.3-1.4-0.4-2.1
				c-0.1-0.7-0.2-1.4-0.3-2.1c-0.2-1.4-0.3-2.8-0.2-4.3c0-0.1,0.1-0.2,0.2-0.1C45.5,26.4,45.5,26.5,45.6,26.5z"/>
		</g>
		<g>
			<path class="st134" d="M28.7,64.6l-2,0.3c-0.9,0.1-1.8-0.2-2.4-1l0,0c-1.7-2.2-2.7-4.8-3-7.5v0c-0.1-0.9,0.3-1.8,1.1-2.3l1.7-1.1
				"/>
		</g>
		<g class="st135">
			<g>
				<path class="st128" d="M24.5,54.1l-1.7,1.1c-0.4,0.3-0.7,0.7-1,1.1c-0.2,0.4-0.3,0.9-0.2,1.5c0,0.4,0.1,0.8,0.2,1.2
					c-0.2-0.8-0.3-1.5-0.4-2.3c0-0.5,0-0.9,0.2-1.3c0.2-0.4,0.5-0.8,0.9-1l1.7-1.1L24.5,54.1z"/>
			</g>
		</g>
		<g>
			<g class="st133">
				<path class="st130" d="M22.6,60.6C22.6,60.6,22.6,60.6,22.6,60.6c0.4,0.8,0.9,1.6,1.5,2.3c0.6,0.7,1.5,1.1,2.4,1l1.9-0.3
					l-4.2-10.7l-0.4,0.2l3.1,7.9l-2,0.3C24,61.5,23.2,61.2,22.6,60.6z M26.5,60.1l-2.7-6.9l0.1-0.1l2.8,7L26.5,60.1z"/>
			</g>
		</g>
		<g>
			<path class="st136" d="M29.1,49.8c-1-2.1-4.6-4.8-11.7-0.3c-0.1,0.1-0.1,0.2,0,0.2c1.2,0.2,6.7,1.2,7.7,4"/>
		</g>
		<g class="st135">
			<g>
				<path class="st128" d="M18.6,49.8c-0.5-0.1-0.9-0.2-1.1-0.2c-0.1,0-0.1-0.2,0-0.2c7.1-4.5,10.6-1.8,11.7,0.3l-0.4,0.4
					C27.3,48.4,24.1,46.8,18.6,49.8z"/>
			</g>
		</g>
		<g>
			<path class="st130" d="M25.1,54.2c-0.2,0-0.4-0.1-0.4-0.3c-0.3-1-1.7-2.7-7.3-3.7l-0.1,0c-0.2,0-0.4-0.2-0.5-0.5
				c0-0.2,0.1-0.5,0.3-0.6c3.4-2.2,6.4-2.9,8.9-2.3c2.2,0.6,3.2,2.1,3.5,2.7c0.1,0.2,0,0.5-0.2,0.6c-0.2,0.1-0.5,0-0.6-0.2
				c-0.3-0.5-1.1-1.8-2.9-2.3c-2-0.5-4.5,0-7.4,1.7c5.1,1,6.7,2.8,7.2,4.2c0.1,0.2,0,0.5-0.3,0.6C25.2,54.2,25.2,54.2,25.1,54.2z"/>
		</g>
		<g>
			<path class="st137" d="M34.4,63.2c0.6,2.2-0.1,6.8-8.3,8.3c-0.1,0-0.2-0.1-0.1-0.2c0.7-1,4.1-5.5,2.8-8.3"/>
		</g>
		<g>
			<path class="st136" d="M26.1,71.5c-0.1,0-0.2-0.1-0.1-0.2c0.4-0.5,1.4-1.9,2.2-3.6c0.7-1.6,1.2-3.4,0.6-4.7c0,0,0,0,0,0l0,0
				l5.6,0.2c0.2,0.6,0.3,1.4,0.1,2.3C34,67.7,32,70.4,26.1,71.5z"/>
		</g>
		<g class="st133">
			<path class="st130" d="M28.2,67.7c0.7-1.6,1.2-3.4,0.6-4.7c0,0,0,0,0,0l5.6,0.2c0.2,0.6,0.3,1.4,0.1,2.3
				C33.1,66.6,31.1,67.5,28.2,67.7z"/>
		</g>
		<g>
			<path class="st130" d="M26.1,72c-0.2,0-0.4-0.1-0.5-0.3c-0.1-0.2-0.1-0.5,0-0.7c0.9-1.2,3.8-5.4,2.8-7.9c-0.1-0.2,0-0.5,0.2-0.6
				c0.2-0.1,0.5,0,0.6,0.2c1.1,2.5-1,6.1-2.4,8.1c3.2-0.7,5.4-2,6.5-3.8c1-1.7,0.7-3.3,0.6-3.7c-0.1-0.2,0.1-0.5,0.3-0.6
				c0.2-0.1,0.5,0.1,0.6,0.3c0.2,0.7,0.5,2.5-0.7,4.5c-1.3,2.2-4,3.7-8,4.4C26.1,72,26.1,72,26.1,72z M26,71.1
				C26,71.1,26,71.1,26,71.1C26,71.1,26,71.1,26,71.1z"/>
		</g>
		<g>
			<path class="st128" d="M67.6,42.4c0,0-1.8,11.7-17.1,19c-13,6.2-21.9,3.1-21.9,3.1c-1.8-2-3.1-4.4-3.9-7C24.3,56,24,54.5,24,52.9
				c0,0,2-3.7,7.4-7.5c0.2-0.1,0.4-0.3,0.6-0.4c2.1-1.4,4.7-2.8,7.9-4c0.7-0.3,1.5-0.6,2.3-0.8c0,0,0.1,0,0.1,0
				c3.3-1,6.2-1.5,8.9-1.7c0.1,0,0.2,0,0.3,0C61.7,37.9,67.6,42.4,67.6,42.4z"/>
		</g>
		<g>
			<path class="st136" d="M59.8,55.3c-1-6-3.3-11.8-6.7-16.9c9.3-0.1,14.6,4,14.6,4S66.7,49,59.8,55.3z"/>
		</g>
		<g class="st135">
			<g>
				<path class="st128" d="M67.5,43.2c0.1-0.5,0.2-0.9,0.2-0.9s-5.2-4.1-14.6-4c0.2,0.3,0.4,0.7,0.6,1
					C61.7,39.4,66.5,42.5,67.5,43.2z"/>
			</g>
		</g>
		<g>
			<path class="st130" d="M59.5,56.3l-0.1-0.9c-1-6-3.2-11.6-6.6-16.7l-0.5-0.7l0.9,0c7.4-0.1,12.3,2.5,14.1,3.6
				c0.7,0.4,1,1.2,0.8,1.9c-0.5,2-2.4,7.2-7.8,12.2L59.5,56.3z M54,38.9c3,4.8,5.1,10,6.1,15.5c4.8-4.7,6.4-9.3,6.9-11.2
				c0.1-0.3,0-0.7-0.4-0.9C65.1,41.3,60.7,39,54,38.9z"/>
		</g>
		<g>
			<path class="st130" d="M34.7,65.8c-3.8,0-6.1-0.7-6.2-0.8l-0.1,0l-0.1-0.1c-1.5-1.6-2.6-3.5-3.4-5.6c-0.8-2-1.2-4.2-1.3-6.4
				l0-0.1l0.1-0.1c0-0.1,1.2-2.2,4-4.8c2.6-2.4,7.2-5.8,14.4-8.1c3.7-1.2,7.5-1.8,11-1.8l0.3,0l0.1,0.2c3.4,5.2,5.7,10.9,6.7,17.1
				l0.1,0.3l-0.2,0.2c-2.6,2.4-5.7,4.5-9.3,6.2C44.1,65.1,38.4,65.8,34.7,65.8C34.8,65.8,34.8,65.8,34.7,65.8z M29,64.1
				c0.5,0.1,2.6,0.7,5.9,0.7c3.5,0,9-0.7,15.6-3.8c3.4-1.6,6.4-3.6,8.9-5.9c-1-5.8-3.2-11.3-6.4-16.3c-3.4,0-6.9,0.6-10.5,1.8
				c-12.5,4-17.2,11.4-17.8,12.4c0.1,2,0.5,4,1.2,5.9C26.6,60.9,27.6,62.6,29,64.1z"/>
		</g>
		<g>
			<path class="st130" d="M26.3,65.4c-0.9,0-1.8-0.4-2.4-1.2c-1.7-2.3-2.8-4.9-3.1-7.8c-0.1-1.1,0.4-2.2,1.3-2.8l1.7-1.1
				c0.2-0.1,0.5-0.1,0.7,0.1c0.1,0.2,0.1,0.5-0.1,0.7l-1.7,1.1c-0.6,0.4-1,1.1-0.9,1.9c0.3,2.6,1.3,5.2,2.9,7.3
				c0.5,0.6,1.2,0.9,1.9,0.8l2-0.3c0.3,0,0.5,0.1,0.5,0.4c0,0.3-0.1,0.5-0.4,0.5l-2,0.3C26.6,65.4,26.5,65.4,26.3,65.4z"/>
		</g>
		<g class="st133">
			<circle class="st130" cx="48.6" cy="50.7" r="6.5"/>
		</g>
		<g>
			<circle class="st136" cx="48.8" cy="49.9" r="5.8"/>
		</g>
		<g class="st135">
			<g>
				<path class="st128" d="M54.5,49c0-0.1-0.1-0.3-0.1-0.4c-1.2-3-4.6-4.5-7.5-3.3c-2.6,1-4.1,3.8-3.6,6.5c-0.9-2.9,0.5-6,3.4-7.2
					c3-1.2,6.4,0.3,7.6,3.3C54.3,48.2,54.4,48.6,54.5,49z"/>
			</g>
		</g>
		<g class="st133">
			<path class="st130" d="M50.9,55.3c-3,1.2-6.4-0.3-7.5-3.3c-0.4-0.9-0.5-1.9-0.4-2.9c0.1,0.4,0.2,0.8,0.3,1.3
				c1.2,3,4.6,4.5,7.5,3.3c2-0.8,3.4-2.7,3.6-4.7C54.9,51.7,53.5,54.3,50.9,55.3z"/>
		</g>
		<g>
			<path class="st130" d="M48.8,56.2c-0.8,0-1.7-0.2-2.5-0.5c-1.5-0.7-2.7-1.9-3.3-3.5c-0.6-1.6-0.6-3.3,0.1-4.8
				c0.7-1.5,1.9-2.7,3.5-3.3c1.6-0.6,3.3-0.6,4.8,0.1c1.5,0.7,2.7,1.9,3.3,3.5c0.6,1.6,0.6,3.3-0.1,4.8c-0.7,1.5-1.9,2.7-3.5,3.3
				l0,0C50.3,56,49.5,56.2,48.8,56.2z M48.8,44.6c-0.7,0-1.3,0.1-2,0.4c-1.3,0.5-2.4,1.5-2.9,2.8s-0.6,2.8-0.1,4.1
				c0.5,1.3,1.5,2.4,2.8,2.9c1.3,0.6,2.8,0.6,4.1,0.1l0,0c1.3-0.5,2.4-1.5,2.9-2.8c0.6-1.3,0.6-2.8,0.1-4.1
				c-0.5-1.3-1.5-2.4-2.8-2.9C50.2,44.7,49.5,44.6,48.8,44.6z"/>
		</g>
		<g>
			<circle class="st138" cx="48.8" cy="49.8" r="3.7"/>
		</g>
		<g class="st129">
			<g>
				<path class="st128" d="M50.2,53.3c-1.9,0.8-4.1-0.2-4.8-2.1c-0.2-0.4-0.2-0.8-0.3-1.3c0,0,0,0.1,0,0.1c0.8,1.9,2.9,2.8,4.8,2.1
					c1.5-0.6,2.4-2,2.3-3.5C53,50.4,52,52.5,50.2,53.3z"/>
			</g>
		</g>
		<g class="st133">
			<path class="st130" d="M52.5,50c0-0.1,0-0.1-0.1-0.2c-0.8-1.9-2.9-2.8-4.8-2.1c-1.4,0.6-2.3,1.9-2.3,3.4
				c-0.6-1.9,0.3-3.9,2.1-4.6c1.9-0.8,4.1,0.2,4.8,2.1C52.5,49,52.6,49.5,52.5,50z"/>
		</g>
		<g>
			<path class="st130" d="M48.8,54c-0.6,0-1.1-0.1-1.7-0.3c-1-0.4-1.8-1.3-2.2-2.3c-0.8-2.1,0.2-4.6,2.3-5.4
				c2.1-0.8,4.6,0.2,5.4,2.3c0.8,2.1-0.2,4.6-2.3,5.4C49.8,53.9,49.3,54,48.8,54z M48.8,46.6c-0.4,0-0.8,0.1-1.2,0.2
				c-1.7,0.7-2.5,2.5-1.8,4.2c0.3,0.8,0.9,1.4,1.7,1.8c0.8,0.3,1.7,0.4,2.5,0l0,0c1.7-0.7,2.5-2.5,1.8-4.2
				C51.3,47.4,50.1,46.6,48.8,46.6z"/>
		</g>
		<g class="st139">
			<path class="st128" d="M60.9,41.9c0-0.9-1.9-1.6-2.9-1.6c-1.1,0-1.7,0.2-1.7,0.7c0,0.7,0.8,1,1.8,1C58.8,42.1,60.9,43,60.9,41.9z
				"/>
		</g>
		<g class="st139">
			<path class="st128" d="M63.6,43c-0.1-0.8-1-1.5-1.5-1.5c-0.5-0.1-0.8,0.1-0.8,0.5c0,0.6,0.5,0.9,0.9,1C62.6,43,63.7,43.9,63.6,43
				z"/>
		</g>
		<g>
			<g class="st133">
				<path class="st130" d="M28.5,63.7c0,0,9,3,21.9-3.1c13.2-6.3,16.3-15.9,16.9-18.4c0.1,0,0.1,0.1,0.2,0.1
					c-0.2-0.1-0.5-0.3-0.9-0.6c-1.8,4.1-6,10.6-15.8,15.3c-6.1,2.9-11.3,3.8-15.2,3.9c-4.9,0.1-9.2-3-10.6-7.7c0,0,0-0.1,0-0.1
					c-0.1-0.2-0.1-0.4-0.2-0.6c0-0.1-0.1-0.2-0.1-0.2c0,0,0-0.1,0-0.1c0,0,0-0.1,0-0.1c0,0,0,0,0,0c0,0,0,0,0,0
					c-0.4,0.5-0.5,0.8-0.5,0.8c0,1.4,0.2,2.8,0.6,4.1C25.4,59.5,26.7,61.7,28.5,63.7z"/>
			</g>
		</g>
		<g>
			<path class="st136" d="M27.8,60.5c-2.7,1.1-6.1,0-6.1,0s0,0,0,0c0.2-0.3,1.9-3.2,4.4-4.2c2.4-1,5,0,5.5,0.2c0,0,0.1,0,0.1,0
				S30.5,59.4,27.8,60.5z"/>
		</g>
		<g class="st135">
			<g>
				<path class="st128" d="M31.9,56.6c0,0-0.1,0.2-0.2,0.5c-0.9-0.3-3.1-0.9-5.2-0.1c-2,0.8-3.5,2.8-4.2,3.7
					c-0.3-0.1-0.5-0.1-0.5-0.1s0,0,0,0c0.2-0.3,1.9-3.2,4.4-4.2C28.7,55.4,31.3,56.4,31.9,56.6C31.8,56.6,31.9,56.6,31.9,56.6z"/>
			</g>
		</g>
		<g class="st133">
			<path class="st130" d="M27.8,60.5c-2.7,1.1-6.1,0-6.1,0s0,0,0,0l9.9-4c0,0,0.1,0,0.1,0S30.5,59.4,27.8,60.5z"/>
		</g>
		<g>
			<path class="st130" d="M25.1,61.4c-1.9,0-3.4-0.5-3.5-0.5L21,60.7l0.3-0.5c0.1-0.1,1.9-3.3,4.7-4.4c2.8-1.1,5.8,0.2,5.9,0.3
				l0.4,0.2l-0.2,0.4c-0.1,0.1-1.3,3.1-4.2,4.2C27.1,61.3,26,61.4,25.1,61.4z M22.5,60.2c1.1,0.2,3.4,0.6,5.2-0.1
				c1.8-0.7,3-2.5,3.4-3.3c-0.9-0.3-2.9-0.8-4.7-0.1C24.5,57.4,23.1,59.3,22.5,60.2z M21.7,60.5L21.7,60.5L21.7,60.5z"/>
		</g>
		<g class="st132">
			<path class="st130" d="M41.1,50.9c0.4,0.5,2.9,4.8,0.9,6.6c-1.8,1.5-5.1,1.3-6.9-1.1c-1.2-1.6-1.4-3.4-1.3-4.7
				c0.1-1.6,0.4-3.1-0.4-4.4c-0.4-0.6-1.1-1.2-1.9-1.9c0.2-0.1,0.4-0.3,0.6-0.4c2.1-1.4,4.7-2.8,7.9-4c0.6,0.3,1.2,0.7,1.7,1.2
				c2,1.9,2,5.8,0.7,7.4C41.7,50.2,41.1,50.9,41.1,50.9z"/>
		</g>
		<g>
			<path class="st128" d="M42.3,49.7c0.4,0.5,2.9,4.8,0.9,6.6c-1.8,1.5-5.1,1.3-6.9-1.1c-1.2-1.6-1.4-3.4-1.3-4.7
				c0.1-1.6,0.4-3.1-0.4-4.4c-0.9-1.4-4.5-1.9-6.3-3.9c-1-1.2-1.6-3.4-1.5-6c0-0.8,0.1-1.7,0.3-2.6c0.7-3.8,2.5-8.1,5.9-11.9
				c0,0,1.3,5.4,2.8,10.2c1,3.3,2,6.4,2.6,7.1c0.1,0.1,0.2,0.2,0.2,0.2c0.8,0.1,1.6,0.3,2.3,0.7c0.7,0.3,1.3,0.7,1.8,1.2
				c2,1.9,2,5.8,0.7,7.4C42.8,49,42.3,49.7,42.3,49.7z"/>
		</g>
		<g class="st132">
			<path class="st130" d="M43.8,55.3c-0.1,0.4-0.3,0.7-0.7,1c-1.8,1.5-5.1,1.3-6.9-1.1c-1.2-1.6-1.4-3.4-1.3-4.7
				c0.1-1.6,0.4-3.1-0.4-4.4c-0.9-1.4-4.5-1.9-6.3-3.9c-1-1.2-1.6-3.4-1.5-6c0,0,0,0,0,0c0-0.1,0-0.2,0-0.3c0-0.1,0-0.2,0-0.3
				c0,0,0-0.1,0-0.1c0-0.2,0-0.4,0.1-0.6c0-0.1,0-0.2,0-0.3c0-0.1,0-0.1,0-0.2c0-0.1,0-0.1,0-0.2c0-0.1,0-0.2,0-0.3
				c0-0.1,0-0.2,0.1-0.3c0,0,0,0,0,0c0.1-0.1,0.2-0.2,0.2-0.2s0.4,0.2,1.1,0.4c1.2,0.3,3.4,0.7,6.9,0.7l-0.1-1.8
				c0-0.4,0.2-0.7,0.5-0.9c0.1,0,0.2-0.1,0.3-0.1l2.1-0.2l3.1,7.5l-2.9-0.1l-2.2-0.1c-0.5,0-0.8-0.4-0.8-0.9l0-0.9
				c-1.9,0.4-5,0.5-7-0.1c0.2,1.9,0.7,3.4,1.5,4.3c1.8,2,4.4,0.9,6.2,3c1.1,1.3,0.5,3.6,0.5,5.2c-0.1,1.4-0.6,3.4,0.6,5
				C38.5,56.6,41.8,56.4,43.8,55.3z"/>
		</g>
		<g class="st132">
			<path class="st130" d="M49.7,21.7c-1.2,1.6-2.7,2.9-4.4,3.8c-0.8,0.4-1.7,0.8-2.7,1c-1,0.2-2,0.4-3,0.4c-1.9,0-3.6-0.4-5.2-1.2
				c-1.6-0.7-3.5,0-4.2,1.6c-1,2.3-1.6,4.5-1.9,6.6c-0.8-0.2-1.1-0.4-1.1-0.4s-0.1,0.1-0.2,0.2c0.7-3.8,2.5-8.1,5.9-11.9l0,0.4
				c0.5-0.6,0.7-1,0.7-1l11.2,0.6c0,0,0,0.6,0.1,1.6C46.4,22.8,48.1,22.3,49.7,21.7z"/>
		</g>
		<g>
			<path class="st130" d="M38.7,39c0.6,0,1.2,0.1,1.8,0.3c0.6,0.2,1.2,0.4,1.7,0.8c0.3,0.2,0.5,0.4,0.8,0.6c0.2,0.2,0.5,0.5,0.6,0.7
				c0.4,0.5,0.6,1.1,0.8,1.7c0.2,0.6,0.3,1.2,0.3,1.9c0,0.6,0,1.3-0.2,1.9c-0.1,0.6-0.4,1.2-0.8,1.8L42.6,50l0-0.6
				c0.1,0.1,0.2,0.3,0.2,0.4c0.1,0.1,0.1,0.3,0.2,0.4c0.1,0.3,0.3,0.5,0.4,0.8c0.2,0.5,0.5,1.1,0.6,1.7c0.2,0.6,0.3,1.2,0.3,1.8
				c0,0.3,0,0.6-0.2,1c-0.1,0.3-0.3,0.6-0.5,0.9l-0.1,0.1c0,0-0.1,0.1-0.1,0.1c-0.1,0.1-0.1,0.1-0.2,0.2c-0.1,0.1-0.3,0.2-0.4,0.3
				c-0.1,0.1-0.3,0.2-0.4,0.2l-0.4,0.2c-0.6,0.2-1.2,0.3-1.8,0.3c-0.6,0-1.2-0.1-1.8-0.3c-0.6-0.2-1.1-0.5-1.6-0.9
				c-0.1-0.1-0.2-0.2-0.4-0.3c-0.1-0.1-0.2-0.2-0.3-0.3l-0.3-0.4c-0.1-0.1-0.2-0.2-0.3-0.4c-0.3-0.5-0.6-1.1-0.8-1.6
				c-0.2-0.6-0.3-1.2-0.4-1.8c0-0.3,0-0.6,0-0.9c0-0.1,0-0.3,0-0.4l0-0.4c0-0.6,0.1-1.1,0.1-1.7c0-0.5,0-1-0.2-1.5
				c0-0.1,0-0.1-0.1-0.2c0-0.1,0-0.1-0.1-0.2l-0.1-0.2c0,0-0.1-0.1-0.1-0.1c-0.1-0.2-0.3-0.3-0.5-0.5C33,45.5,32.5,45.3,32,45
				c-1-0.5-2.1-0.9-3.1-1.6c-0.5-0.4-0.9-0.8-1.3-1.3c-0.4-0.5-0.6-1.1-0.8-1.6c-0.2-0.6-0.3-1.1-0.4-1.7c-0.1-0.6-0.1-1.2-0.1-1.7
				c0-1.2,0.1-2.3,0.3-3.5c0.4-2.3,1.1-4.5,2.2-6.5c0.5-1,1.1-2,1.7-3c0.7-0.9,1.4-1.8,2.4-2.5c0.1-0.1,0.2,0,0.2,0
				c0,0.1,0,0.1,0,0.2l0,0c-0.5,1-1.2,1.9-1.8,2.9c-0.6,0.9-1.2,1.9-1.7,2.9c-1,2-1.7,4.1-2.1,6.3c-0.2,1.1-0.3,2.2-0.3,3.3
				c0,0.5,0.1,1.1,0.1,1.6c0.1,0.5,0.2,1.1,0.4,1.6c0.2,0.5,0.4,1,0.7,1.4c0.3,0.4,0.7,0.8,1.1,1.1c0.9,0.6,1.9,1.1,2.9,1.5
				c0.5,0.2,1,0.5,1.6,0.8c0.3,0.2,0.5,0.4,0.7,0.6c0.1,0.1,0.1,0.1,0.2,0.2l0.1,0.2c0,0.1,0.1,0.1,0.1,0.2c0,0.1,0.1,0.1,0.1,0.2
				c0.1,0.3,0.2,0.6,0.2,0.9c0,0.3,0.1,0.6,0.1,0.9c0,0.6-0.1,1.2-0.1,1.7l0,0.4c0,0.1,0,0.3,0,0.4c0,0.3,0,0.5,0,0.8
				c0.1,0.5,0.2,1.1,0.3,1.6c0.3,1,0.9,1.9,1.7,2.5c0.4,0.3,0.9,0.6,1.3,0.7c0.5,0.2,1,0.3,1.5,0.3c0.5,0,1-0.1,1.5-0.2l0.3-0.1
				c0.1-0.1,0.2-0.1,0.3-0.2c0.1-0.1,0.2-0.1,0.3-0.2c0.1,0,0.1-0.1,0.1-0.1c0,0,0,0,0.1-0.1l0.1-0.1c0.3-0.3,0.4-0.8,0.4-1.3
				c0-0.5-0.1-1-0.2-1.5c-0.1-0.5-0.3-1-0.6-1.5c-0.1-0.2-0.2-0.5-0.4-0.7c-0.1-0.1-0.1-0.2-0.2-0.4c-0.1-0.1-0.1-0.2-0.2-0.3
				l-0.2-0.3l0.2-0.3l1.1-1.4c0.3-0.4,0.5-0.9,0.6-1.4c0.2-1.1,0.2-2.2-0.2-3.3c-0.2-0.5-0.4-1-0.7-1.5c-0.1-0.2-0.3-0.4-0.5-0.6
				c-0.2-0.2-0.4-0.4-0.6-0.5c-0.4-0.3-0.9-0.6-1.4-0.9c-0.5-0.2-1-0.5-1.6-0.7l0,0c-0.1,0-0.1-0.1-0.1-0.2C38.6,39,38.6,39,38.7,39
				z"/>
		</g>
		<g>
			<path class="st130" d="M35,47.7c-0.2,0-0.3-0.1-0.3-0.3c-0.5-4.1,1.9-6,2.9-6.6c1.8-1.1,3.9-1.2,5.1-0.2c0.2,0.1,0.2,0.3,0.1,0.5
				c-0.1,0.2-0.3,0.2-0.5,0.1c-1-0.7-2.9-0.6-4.4,0.3c-0.9,0.6-3.1,2.3-2.6,5.9C35.3,47.5,35.2,47.7,35,47.7
				C35,47.7,35,47.7,35,47.7z"/>
		</g>
		<g>
			<path class="st130" d="M42.9,49.7c0,0-0.1,0.1-0.1,0.1c0,0-0.1,0.1-0.1,0.1c-0.1,0.1-0.2,0.1-0.2,0.2c-0.2,0.1-0.3,0.2-0.5,0.3
				c-0.4,0.2-0.8,0.3-1.2,0.3c-0.4,0-0.8,0-1.2-0.1c-0.4-0.1-0.7-0.4-1-0.7c0.4,0.1,0.7,0.1,1.1,0.1c0.2,0,0.3,0,0.5,0
				c0.2,0,0.3-0.1,0.5-0.1c0.3-0.1,0.6-0.2,0.9-0.4c0.1-0.1,0.3-0.2,0.4-0.2l0.2-0.1l0.2-0.1l0,0c0.2-0.1,0.5-0.1,0.7,0.1
				C43.1,49.3,43.1,49.5,42.9,49.7z"/>
		</g>
		<g>
			<path class="st128" d="M51.9,16.1L51.9,16.1c-0.1,0-0.3-0.1-0.3-0.2l-0.5-7.3c0-0.1,0.1-0.3,0.2-0.3l0,0c1.5-0.1,2.7,1,2.8,2.5
				l0.2,2.5C54.5,14.7,53.4,16,51.9,16.1z"/>
			<path class="st130" d="M51.9,16.1c-0.2,0-0.3-0.1-0.3-0.3l-0.5-7.3c0-0.2,0.1-0.3,0.3-0.3c1.5-0.1,2.8,1,2.9,2.5l0.2,2.5
				c0,0.7-0.2,1.4-0.7,2C53.3,15.7,52.6,16.1,51.9,16.1L51.9,16.1C51.9,16.1,51.9,16.1,51.9,16.1z M51.9,16.1L51.9,16.1L51.9,16.1z
				 M51.6,8.3c-0.1,0-0.1,0-0.2,0c-0.1,0-0.1,0-0.1,0.1c0,0-0.1,0.1-0.1,0.1l0.5,7.3c0,0.1,0.1,0.2,0.2,0.2c0.7,0,1.3-0.4,1.8-0.9
				c0.5-0.5,0.7-1.2,0.6-1.9l-0.2-2.5c0-0.7-0.4-1.3-0.9-1.8C52.8,8.5,52.2,8.3,51.6,8.3z"/>
		</g>
		<g class="st133">
			<path class="st130" d="M54.3,12.1l0.1,1.2c0.1,1.5-1,2.7-2.5,2.8c-0.1,0-0.3-0.1-0.3-0.2l-0.1-1.9c0,0.1,0.1,0.1,0.2,0.1l0.2,0
				C53.1,13.9,54,13.1,54.3,12.1z"/>
		</g>
		<g>
			<path class="st130" d="M51.9,16.5c-0.4,0-0.7-0.3-0.7-0.7l-0.5-7.3c0-0.4,0.3-0.7,0.7-0.8C52.2,7.7,53,8,53.7,8.6
				c0.6,0.6,1,1.3,1.1,2.2l0.2,2.5c0.1,0.8-0.2,1.6-0.8,2.3C53.5,16.1,52.8,16.5,51.9,16.5C52,16.5,52,16.5,51.9,16.5
				C51.9,16.5,51.9,16.5,51.9,16.5z M51.9,16.1L51.9,16.1L51.9,16.1z M51.7,8.7l0.4,6.8c1.1-0.2,1.9-1.2,1.8-2.3l-0.2-2.5
				c0-0.6-0.3-1.1-0.7-1.5C52.7,8.9,52.2,8.7,51.7,8.7z"/>
		</g>
		<g>
			<path class="st128" d="M27.3,9.8L27.3,9.8c0.1,0,0.3,0.1,0.3,0.2l0.5,7.3c0,0.1-0.1,0.3-0.2,0.3h0c-1.5,0.1-2.7-1-2.8-2.5
				l-0.2-2.5C24.8,11.2,25.9,9.9,27.3,9.8z"/>
			<path class="st130" d="M27.7,17.7c-0.7,0-1.3-0.2-1.8-0.7c-0.5-0.5-0.9-1.1-0.9-1.9l-0.2-2.5c0-0.7,0.2-1.4,0.7-2
				c0.5-0.5,1.1-0.9,1.9-0.9l0,0c0.2,0,0.3,0.1,0.3,0.3l0.5,7.3c0,0.1,0,0.2-0.1,0.2c-0.1,0.1-0.1,0.1-0.2,0.1
				C27.8,17.7,27.7,17.7,27.7,17.7z M27.4,9.8c-0.7,0-1.3,0.4-1.8,0.9c-0.5,0.5-0.7,1.2-0.6,1.9l0.2,2.5c0,0.7,0.4,1.3,0.9,1.8
				c0.5,0.5,1.2,0.7,1.9,0.6c0.1,0,0.1,0,0.1-0.1c0,0,0.1-0.1,0.1-0.1L27.6,10C27.6,9.9,27.5,9.8,27.4,9.8L27.4,9.8z"/>
		</g>
		<g class="st133">
			<path class="st130" d="M28,15.3l0.1,2c0,0.1-0.1,0.3-0.2,0.3c-0.8,0-1.5-0.2-2-0.7c-0.5-0.4-0.8-1.1-0.8-1.8l-0.1-1
				c0.5,0.9,1.4,1.5,2.5,1.4l0.3,0C27.8,15.4,27.9,15.4,28,15.3z"/>
		</g>
		<g>
			<path class="st130" d="M27.7,18.1c-1.6,0-3-1.3-3.1-2.9l-0.2-2.5c-0.1-0.8,0.2-1.6,0.8-2.3c0.6-0.6,1.3-1,2.2-1.1c0,0,0,0,0,0
				c0.4,0,0.7,0.3,0.8,0.7l0.5,7.3c0,0.2-0.1,0.4-0.2,0.5c-0.1,0.1-0.3,0.2-0.5,0.2C27.8,18.1,27.7,18.1,27.7,18.1z M27.2,10.3
				c-1.1,0.2-1.9,1.2-1.8,2.3l0.2,2.5c0,0.6,0.3,1.1,0.7,1.5c0.4,0.3,0.9,0.5,1.4,0.5L27.2,10.3z"/>
		</g>
		<g>
			<circle class="st128" cx="39.6" cy="12.9" r="12.5"/>
			<path class="st130" d="M39.6,25.4C39.6,25.4,39.6,25.4,39.6,25.4c-7,0-12.6-5.7-12.5-12.6c0-6.9,5.6-12.4,12.5-12.4
				c0,0,0.1,0,0.1,0c3.3,0,6.5,1.3,8.8,3.7s3.6,5.5,3.6,8.9C52.1,19.9,46.5,25.4,39.6,25.4z M39.6,0.5c-3.3,0-6.4,1.3-8.7,3.6
				c-2.4,2.3-3.7,5.4-3.7,8.7c0,3.3,1.2,6.4,3.6,8.8c2.3,2.4,5.4,3.7,8.7,3.7c3.3,0,6.4-1.2,8.8-3.6c2.4-2.3,3.7-5.4,3.7-8.7
				c0-3.3-1.2-6.4-3.6-8.8C46.1,1.9,43,0.5,39.6,0.5C39.7,0.5,39.7,0.5,39.6,0.5z"/>
		</g>
		<g class="st133">
			<path class="st130" d="M52,11.3c0.1,0.6,0.1,1.1,0.1,1.7c-0.1,6.9-5.7,12.4-12.5,12.4c-6.9-0.1-12.4-5.7-12.4-12.5
				c0-0.2,0-0.4,0-0.6c0.8,6.1,6,10.8,12.3,10.8C46.1,23.1,51.6,17.9,52,11.3z"/>
		</g>
		<g>
			<path class="st130" d="M39.6,25.9C39.6,25.9,39.6,25.9,39.6,25.9c-3.5,0-6.8-1.4-9.2-3.9c-2.4-2.5-3.7-5.7-3.7-9.2
				c0-3.5,1.4-6.7,3.9-9.1C33,1.3,36.3,0,39.7,0c3.5,0,6.7,1.4,9.1,3.9c2.4,2.5,3.7,5.7,3.7,9.2c0,3.5-1.4,6.7-3.9,9.1
				C46.3,24.5,43.1,25.9,39.6,25.9z M39.6,0.9c-3.2,0-6.2,1.2-8.4,3.4c-2.3,2.2-3.5,5.2-3.6,8.4s1.2,6.2,3.4,8.5
				c2.2,2.3,5.2,3.5,8.4,3.6c3.2,0,6.2-1.2,8.5-3.4c2.3-2.2,3.5-5.2,3.6-8.4c0-3.2-1.2-6.2-3.4-8.5C45.9,2.2,42.9,1,39.6,0.9
				C39.7,0.9,39.7,0.9,39.6,0.9z"/>
		</g>
		<g>
			<path class="st130" d="M52,13.3c0,2.4-0.8,4.7-2.1,6.6c-1,1.4-5.2,3.9-10.3,4c-4.8,0.1-9.1-2.4-10.2-3.8
				c-1.4-1.9-2.2-4.1-2.2-6.6c-0.1-6.4,5.5-9.2,12.3-9.2C46.4,4.3,52,6.9,52,13.3z"/>
		</g>
		<g>
			<path class="st130" d="M39.4,24.2c-4.8,0-9.1-2.5-10.2-3.9c-1.5-2-2.2-4.3-2.3-6.7c0-3.1,1.2-5.6,3.7-7.2
				c2.2-1.4,5.2-2.2,8.9-2.3c3.7,0,6.7,0.7,8.9,2.1c2.5,1.6,3.8,4,3.8,7.2l0,0c0,2.4-0.7,4.8-2.1,6.8c-1,1.4-5.1,4-10.5,4.1
				C39.6,24.2,39.5,24.2,39.4,24.2z M39.8,4.6c-0.1,0-0.1,0-0.2,0c-3.6,0-12.1,1-12,8.9c0,2.3,0.8,4.5,2.1,6.4
				c1,1.3,5.1,3.7,9.7,3.7c0.1,0,0.1,0,0.2,0c5.2-0.1,9.2-2.6,10.1-3.9c1.4-1.9,2.1-4.1,2-6.4l0,0C51.7,5.5,43.5,4.6,39.8,4.6z"/>
		</g>
		<g class="st140">
			<ellipse transform="matrix(0.1705 -0.9854 0.9854 0.1705 27.5237 57.6781)" class="st128" cx="48" cy="12.5" rx="2.2" ry="1.6"/>
		</g>
		<g class="st140">
			<ellipse transform="matrix(0.305 -0.9524 0.9524 0.305 15.9686 55.6278)" class="st128" cx="46.1" cy="16.9" rx="1" ry="0.9"/>
		</g>
		<g class="st133">
			<path class="st141" d="M49.6,7.3c1.5,1.4,2.4,3.4,2.5,6c0,2.4-0.8,4.7-2.1,6.6c-1,1.4-5.2,3.9-10.3,4c-1.8,0-3.6-0.3-5.1-0.8
				c6.3-0.2,11.4-3.3,12.6-5c1.7-2.4,2.7-5.3,2.7-8.4C49.8,8.8,49.7,8.1,49.6,7.3z"/>
		</g>
		<g>
			<path class="st130" d="M28.6,8.3l-0.7-0.6L28.2,8l-0.4-0.2c2.2-3.3,6.5-5.2,11.7-5.2c5.2,0,9.5,1.7,11.8,4.9
				c0.1,0.2,0.1,0.4,0,0.6c-0.2,0.2-0.5,0.2-0.7,0.1c0,0-0.1-0.1-0.1-0.1c-2.1-2.9-6.1-4.5-11-4.5C34.6,3.5,30.6,5.3,28.6,8.3
				C28.6,8.3,28.6,8.3,28.6,8.3z M28.2,8L28.2,8L28.2,8z"/>
		</g>
		<g class="st140">
			<path class="st128" d="M30.1,17.3c0,0-2-6.3,1.4-8.9c3.4-2.6,8.3-2.6,8.2-2.3c0,0-5.5,1.4-7.6,5.7C30.5,15.2,30.1,17.3,30.1,17.3
				z"/>
		</g>
		<g>
			<path class="st128" d="M47.5,31.2l0.3,2.6l0.3,2c0.1,0.5-0.3,1.1-0.8,1.2c-0.3,0.1-0.8,0.2-1.3,0.2c-1.8,0.3-4.4,0.7-7,0.6
				c-0.6,0-1-0.5-1-1l-0.1-5.4c0-0.6,0.5-1.1,1.1-1.1c1.8,0,5.5,0.1,7.5-0.1C46.9,30.2,47.4,30.6,47.5,31.2z"/>
		</g>
		<g>
			<path class="st128" d="M38.8,30.3l-2.1,0.2c-0.5,0-0.8,0.5-0.8,0.9l0.2,5.3c0,0.5,0.4,0.8,0.8,0.9l2,0.1"/>
		</g>
		<g class="st132">
			<path class="st130" d="M38.8,30.3l-2.1,0.2c-0.5,0-0.8,0.5-0.8,0.9l0.2,5.3c0,0.5,0.4,0.8,0.8,0.9l2,0.1"/>
		</g>
		<g>
			<path class="st130" d="M39.4,38.2c-0.1,0-0.3,0-0.4,0c-0.8,0-1.4-0.6-1.4-1.4l-0.1-5.4c0-0.4,0.1-0.8,0.4-1.1
				c0.3-0.3,0.7-0.4,1.1-0.4c1.9,0,5.5,0.1,7.5-0.1c0.8-0.1,1.5,0.5,1.6,1.3l0.6,4.6c0.1,0.8-0.4,1.5-1.2,1.6
				C45.7,37.7,42.6,38.2,39.4,38.2z M38.8,30.8c-0.2,0-0.3,0.1-0.5,0.2c-0.1,0.1-0.2,0.3-0.2,0.5l0.1,5.4c0,0.3,0.3,0.6,0.6,0.6
				c3.3,0,6.6-0.5,8.2-0.8c0.3-0.1,0.6-0.4,0.5-0.7l-0.6-4.6c0-0.3-0.3-0.6-0.7-0.6C44.4,30.9,40.8,30.8,38.8,30.8L38.8,30.8
				C38.8,30.8,38.8,30.8,38.8,30.8z"/>
		</g>
		<g>
			<path class="st130" d="M38.8,38.2C38.8,38.2,38.8,38.2,38.8,38.2l-2-0.1c-0.7,0-1.2-0.6-1.2-1.3l-0.2-5.3c0-0.7,0.5-1.3,1.2-1.3
				l2.1-0.2c0.2,0,0.4,0.1,0.5,0.4c0,0.2-0.1,0.4-0.4,0.5L36.7,31c-0.3,0-0.4,0.2-0.4,0.5l0.2,5.3c0,0.3,0.2,0.5,0.5,0.5l2,0.1
				c0.2,0,0.4,0.2,0.4,0.4C39.2,38.1,39,38.2,38.8,38.2z"/>
		</g>
		<g>
			<path class="st130" d="M43.3,38c-0.2,0-0.4-0.2-0.4-0.4l-0.2-2.7L41.4,34c-0.1-0.1-0.2-0.2-0.2-0.3L41,30.4
				c0-0.2,0.2-0.4,0.4-0.4c0.2,0,0.4,0.2,0.4,0.4l0.2,3.1l1.4,0.9c0.1,0.1,0.2,0.2,0.2,0.3l0.2,2.9C43.7,37.8,43.6,38,43.3,38
				C43.3,38,43.3,38,43.3,38z"/>
		</g>
		<g>
			<path class="st142" d="M47.2,33.7c0,0.2-0.1,1.5-0.1,1.5s-0.4,0-0.9,0.1c-0.6,0.1-1.2-0.5-1.3-1.4s0.4-1.5,1-1.6
				c0.4,0,0.9-0.1,0.9-0.1S47.2,33.4,47.2,33.7z"/>
		</g>
		<g>
			<path class="st128" d="M47.2,33.7c0,0.2-0.1,1.5-0.1,1.5s0,0,0,0c0-0.4,0-0.9,0-0.9c0-0.3-0.4-1.5-0.4-1.5s-0.5,0.1-0.9,0.1
				c-0.5,0-0.8,0.4-1,0.9c0-0.8,0.4-1.4,1-1.5c0.4,0,0.9-0.1,0.9-0.1S47.2,33.4,47.2,33.7z"/>
		</g>
		<g>
			<path class="st130" d="M46.1,35.6c-0.8,0-1.5-0.7-1.6-1.7c-0.1-1,0.5-1.9,1.3-2l0.7-0.1c0.3,0,0.6,0.2,0.7,0.5
				c0.3,1,0.3,1.2,0.3,1.3v0c0,0,0,0.2-0.1,1.3c0,0.3-0.3,0.6-0.6,0.6l-0.7,0.1C46.2,35.6,46.1,35.6,46.1,35.6z M46.5,32.6l-0.6,0.1
				c-0.4,0-0.8,0.6-0.7,1.2c0.1,0.6,0.5,1.1,0.9,1.1l0.6-0.1c0-0.8,0.1-1.1,0.1-1.2C46.8,33.6,46.7,33.3,46.5,32.6z"/>
		</g>
		<g>
			<ellipse transform="matrix(0.9946 -0.1035 0.1035 0.9946 -3.2331 5.038)" class="st142" cx="47" cy="33.7" rx="1.2" ry="1.5"/>
		</g>
		<g>
			<path class="st128" d="M48.1,33.6c0,0.1,0,0.2,0,0.3c-0.2-0.7-0.7-1.1-1.3-1.1c-0.6,0.1-1,0.6-1,1.3c0-0.1,0-0.2-0.1-0.3
				c-0.1-0.8,0.4-1.5,1-1.6C47.4,32.1,48,32.7,48.1,33.6z"/>
		</g>
		<g>
			<path class="st130" d="M47,35.5c-0.4,0-0.7-0.2-1-0.5c-0.3-0.3-0.5-0.8-0.5-1.2c0-0.5,0.1-0.9,0.3-1.3c0.3-0.4,0.6-0.6,1-0.7
				c0.4,0,0.8,0.1,1.2,0.5c0.3,0.3,0.5,0.8,0.5,1.2v0c0,0.5-0.1,0.9-0.3,1.3c-0.3,0.4-0.6,0.6-1,0.7C47.1,35.5,47.1,35.5,47,35.5z
				 M46.9,32.5C46.9,32.5,46.9,32.5,46.9,32.5c-0.3,0-0.4,0.2-0.6,0.4c-0.2,0.2-0.2,0.5-0.2,0.9c0,0.3,0.2,0.6,0.4,0.8
				c0.2,0.2,0.4,0.3,0.6,0.2c0.2,0,0.4-0.1,0.5-0.4c0.2-0.2,0.2-0.5,0.2-0.9v0c0-0.3-0.2-0.6-0.4-0.8C47.3,32.6,47.1,32.5,46.9,32.5
				z"/>
		</g>
		<g>
			<path class="st128" d="M27.2,32.2c0,0,2.8,1.3,9.5,1c0,0,1.2,1.2,0,2.1c-1.2,1-8.1,1.5-9.9-0.5C25.6,33.7,27.2,32.2,27.2,32.2z"
				/>
		</g>
		<g class="st132">
			<path class="st130" d="M36.7,35.4c-1.2,1-8.1,1.5-10-0.5c-0.6-0.6-0.5-1.2-0.2-1.8c0.1,0.1,0.1,0.2,0.2,0.3c1.8,2,8.7,1.4,10,0.5
				c0.1-0.1,0.2-0.2,0.3-0.3C37.2,34.1,37.4,34.8,36.7,35.4z"/>
		</g>
		<g>
			<path class="st130" d="M31.8,36.7c-1.6,0-4.2-0.2-5.4-1.5c-0.4-0.4-0.6-0.9-0.5-1.4c0-1.1,1-1.9,1-1.9l0.2-0.2l0.2,0.1
				c0,0,2.8,1.2,9.3,1l0.2,0L37,33c0.1,0.1,0.7,0.7,0.7,1.5c0,0.3-0.1,0.8-0.7,1.2c-0.8,0.6-3.2,1-5,1
				C31.9,36.7,31.9,36.7,31.8,36.7z M27.3,32.7c-0.2,0.2-0.6,0.7-0.6,1.2c0,0.3,0.1,0.5,0.3,0.8c1.7,1.8,8.4,1.2,9.4,0.4
				c0.2-0.2,0.4-0.4,0.4-0.6c0-0.3-0.2-0.6-0.3-0.8C31,33.9,28.1,33,27.3,32.7z"/>
		</g>
		<g class="st132">
			<path class="st130" d="M51.2,42.1c-1,1.2-4.2,2.4-6,1.3c-1.5-0.9-1.5-2.2-2.5-3c-0.1,0-0.2-0.1-0.5-0.2c3.3-1,6.2-1.5,8.9-1.7
				C52.3,39.9,52.1,41.1,51.2,42.1z"/>
		</g>
		<g>
			<path class="st128" d="M37.2,26.7c3.6,4.5,9.6,7.3,13.2,10.6c2,1.8,1.7,2.6,0.7,3.8c-1,1.2-3.4,2.4-5.1,1.3
				c-1.4-0.9-1.5-1.8-2.6-2.5c-0.4-0.3-6.9-2-10.5-7.7"/>
		</g>
		<g class="st132">
			<path class="st130" d="M51.1,41.1c-1,1.2-3.4,2.4-5.1,1.3c-1.5-0.9-1.5-1.8-2.6-2.5c-0.4-0.3-6.9-2-10.5-7.7l0.1-0.1
				c4,4.2,8.2,4.5,11,6.6c1,0.8,1.1,1,2.5,1.9c1.7,1.1,4.1-0.1,5.1-1.3c0.1-0.1,0.1-0.2,0.2-0.2C52,39.8,51.7,40.4,51.1,41.1z"/>
		</g>
		<g>
			<path class="st130" d="M37.3,26.6c0.8,0.5,1.4,1.2,2.1,1.8c0.7,0.6,1.4,1.2,2.1,1.8c0.7,0.6,1.4,1.1,2.2,1.6
				c0.7,0.5,1.5,1,2.3,1.6c0.8,0.5,1.5,1,2.3,1.6c0.2,0.1,0.4,0.3,0.6,0.4c0.2,0.1,0.4,0.3,0.6,0.4c0.4,0.3,0.7,0.6,1.1,0.9
				c0.4,0.3,0.7,0.6,1,1c0.1,0.1,0.2,0.2,0.2,0.3c0.1,0.1,0.2,0.2,0.2,0.3l0.1,0.2l0.1,0.1c0,0,0,0.1,0,0.1l0.1,0.2
				c0,0.1,0,0.1,0.1,0.2c0.1,0.3,0.1,0.6,0,0.9c-0.1,0.3-0.2,0.6-0.3,0.8c-0.1,0.2-0.3,0.4-0.4,0.6c-0.1,0.1-0.2,0.2-0.2,0.3
				c-0.1,0.1-0.2,0.2-0.3,0.3c-0.4,0.3-0.8,0.6-1.2,0.9c-0.4,0.2-0.9,0.4-1.4,0.5c-0.5,0.1-1,0.1-1.6,0l-0.2,0c-0.1,0-0.1,0-0.2-0.1
				c-0.1,0-0.3-0.1-0.4-0.1c-0.1-0.1-0.2-0.1-0.4-0.2c-0.1-0.1-0.2-0.1-0.3-0.2c-0.2-0.1-0.4-0.3-0.6-0.5c-0.2-0.2-0.4-0.4-0.5-0.5
				c-0.3-0.4-0.6-0.7-0.8-1c0,0-0.1-0.1-0.1-0.1c0,0-0.1-0.1-0.1-0.1l-0.1,0l0,0l0,0c0,0,0,0,0,0c0,0,0,0,0,0l0,0c0,0,0,0-0.1,0
				c-0.2-0.1-0.4-0.2-0.6-0.2c-0.4-0.2-0.9-0.3-1.3-0.5c-1.7-0.7-3.4-1.7-4.8-2.8c-0.4-0.3-0.7-0.6-1.1-0.9c-0.3-0.3-0.7-0.6-1-1
				c-0.2-0.2-0.3-0.3-0.5-0.5c-0.1-0.1-0.1-0.2-0.2-0.3c-0.1-0.1-0.1-0.2-0.2-0.3c-0.1-0.2-0.2-0.4-0.3-0.6
				c-0.1-0.2-0.2-0.4-0.2-0.7c0-0.1,0-0.2,0.1-0.2c0,0,0.1,0,0.1,0l0,0c0.2,0.1,0.4,0.3,0.5,0.4c0.2,0.2,0.3,0.3,0.5,0.5
				c0.1,0.1,0.2,0.2,0.2,0.2c0.1,0.1,0.2,0.2,0.2,0.2c0.1,0.1,0.2,0.2,0.2,0.2c0.1,0.1,0.2,0.2,0.2,0.2c0.3,0.3,0.6,0.7,0.9,1
				c0.3,0.3,0.7,0.6,1,0.9c1.4,1.1,3,2,4.6,2.7c0.4,0.2,0.8,0.4,1.3,0.5c0.2,0.1,0.4,0.2,0.7,0.3c0,0,0.1,0,0.1,0c0,0,0,0,0.1,0
				c0,0,0.1,0,0.1,0c0,0,0,0,0,0l0,0l0,0l0.1,0.1c0.1,0.1,0.2,0.2,0.3,0.3c0.4,0.4,0.6,0.8,0.9,1.1c0.3,0.3,0.6,0.6,0.9,0.9
				c0.1,0.1,0.2,0.1,0.3,0.2l0.3,0.1c0.1,0,0.2,0.1,0.3,0.1c0,0,0.1,0,0.1,0l0.1,0c0.4,0.1,0.8,0.1,1.2,0c0.8-0.2,1.6-0.6,2.2-1.1
				c0.1-0.1,0.2-0.1,0.2-0.2c0.1-0.1,0.1-0.1,0.2-0.2c0.1-0.2,0.3-0.3,0.4-0.5c0.1-0.2,0.2-0.3,0.2-0.5c0-0.2,0-0.3,0-0.5
				c-0.1-0.3-0.3-0.7-0.6-1c-0.3-0.3-0.6-0.6-1-0.9c-0.3-0.3-0.7-0.6-1-0.9c-0.2-0.1-0.4-0.3-0.5-0.4c-0.2-0.1-0.4-0.3-0.6-0.4
				c-0.7-0.5-1.5-1-2.3-1.6c-0.8-0.5-1.5-1-2.3-1.6c-0.8-0.5-1.5-1.1-2.2-1.6c-0.7-0.6-1.5-1.1-2.1-1.8c-0.7-0.7-1.3-1.4-1.7-2.3
				c0-0.1,0-0.2,0.1-0.2C37.2,26.6,37.3,26.6,37.3,26.6L37.3,26.6z"/>
		</g>
		<g>
			<path class="st130" d="M37.5,37.3C37.5,37.3,37.4,37.3,37.5,37.3c-0.3-0.1-0.5-0.3-0.4-0.5c0.1-0.2,1.4-5.6,5.2-5.6
				c0,0,0,0,0.1,0c0.2,0,0.4,0.2,0.4,0.4c0,0.2-0.2,0.4-0.4,0.4c0,0,0,0,0,0c-3.1,0-4.4,5-4.4,5C37.9,37.2,37.7,37.3,37.5,37.3z"/>
		</g>
		<g>
			<path class="st130" d="M52.9,28.7c-0.1,0-0.1,0-0.2-0.1c-2.1-1.2-2.2-6.8-2.3-7.5c0-0.2,0.2-0.4,0.4-0.4c0,0,0,0,0,0
				c0.2,0,0.4,0.2,0.4,0.4c0,1.6,0.4,6,1.8,6.8c0.2,0.1,0.3,0.4,0.2,0.6C53.2,28.6,53,28.7,52.9,28.7z"/>
		</g>
		<g>
			<path class="st130" d="M56.3,18.1c0,0,0,0.1,0,0.1l0,0.1c0,0.1,0,0.2,0,0.3c0,0.2,0,0.3,0.1,0.5c0,0.2,0.1,0.4,0.1,0.5
				c0,0.2,0.1,0.4,0.1,0.6c-0.2-0.1-0.4-0.2-0.5-0.4c-0.1-0.1-0.1-0.2-0.2-0.3c0-0.1-0.1-0.2-0.1-0.3c-0.1-0.2-0.1-0.4-0.2-0.6
				c0-0.1,0-0.2,0-0.3c0-0.1,0-0.1,0-0.2c0-0.1,0-0.1,0-0.2c0-0.2,0.2-0.3,0.4-0.3C56.1,17.7,56.3,17.9,56.3,18.1L56.3,18.1z"/>
		</g>
	</g>
</g>
</svg>
