<?xml version="1.0" encoding="utf-8"?>
<!-- Generator: Adobe Illustrator 22.0.1, SVG Export Plug-In . SVG Version: 6.00 Build 0)  -->
<svg version="1.1" id="Layer_1" xmlns="http://www.w3.org/2000/svg" xmlns:xlink="http://www.w3.org/1999/xlink" x="0px" y="0px"
	 viewBox="0 0 72 47.1" style="enable-background:new 0 0 72 47.1;" xml:space="preserve">
<style type="text/css">
	.st0{fill:#E9CF8C;stroke:#000000;stroke-width:0.25;stroke-miterlimit:10;}
</style>
<path class="st0" d="M29.7,23.5L0.1,47c0,0-0.1,0-0.1,0V0.1c0,0,0,0,0.1,0L29.7,23.5z"/>
<path class="st0" d="M42.3,23.5L71.9,47c0,0,0.1,0,0.1,0V0.1c0,0,0,0-0.1,0L42.3,23.5z"/>
<path class="st0" d="M37.5,19.4L71.9,47c0,0,0,0.1,0,0.1H0.1c0,0-0.1,0,0-0.1l34.3-27.6C35.3,18.6,36.6,18.6,37.5,19.4z"/>
</svg>
